{"asset":{"version":"2.0","generator":"Blockbench 5.1.0 glTF exporter"},"scenes":[{"nodes":[0,1,2,3],"name":"blockbench_export"}],"scene":0,"nodes":[{"translation":[0,0,-0.0625],"name":"mesh","mesh":0},{"rotation":[-0.7071067811865475,0,0,0.7071067811865476],"translation":[0,0.15625,0.21875],"name":"mesh","mesh":1},{"rotation":[-1,0,0,6.123233995736766e-17],"translation":[0,0.4375,0.0625],"name":"mesh","mesh":2},{"rotation":[-0.7071067811865475,0,0,0.7071067811865476],"translation":[0,0.28125,0.03125],"name":"mesh","mesh":3}],"bufferViews":[{"buffer":0,"byteOffset":0,"byteLength":168,"target":34962,"byteStride":12},{"buffer":0,"byteOffset":168,"byteLength":168,"target":34962,"byteStride":12},{"buffer":0,"byteOffset":336,"byteLength":112,"target":34962,"byteStride":8},{"buffer":0,"byteOffset":448,"byteLength":36,"target":34963},{"buffer":0,"byteOffset":484,"byteLength":168,"target":34962,"byteStride":12},{"buffer":0,"byteOffset":652,"byteLength":168,"target":34962,"byteStride":12},{"buffer":0,"byteOffset":820,"byteLength":112,"target":34962,"byteStride":8},{"buffer":0,"byteOffset":932,"byteLength":36,"target":34963},{"buffer":0,"byteOffset":968,"byteLength":168,"target":34962,"byteStride":12},{"buffer":0,"byteOffset":1136,"byteLength":168,"target":34962,"byteStride":12},{"buffer":0,"byteOffset":1304,"byteLength":112,"target":34962,"byteStride":8},{"buffer":0,"byteOffset":1416,"byteLength":36,"target":34963},{"buffer":0,"byteOffset":1452,"byteLength":168,"target":34962,"byteStride":12},{"buffer":0,"byteOffset":1620,"byteLength":168,"target":34962,"byteStride":12},{"buffer":0,"byteOffset":1788,"byteLength":112,"target":34962,"byteStride":8},{"buffer":0,"byteOffset":1900,"byteLength":36,"target":34963}],"buffers":[{"byteLength":1936,"uri":"data:application/octet-stream;base64,"}],"accessors":[{"bufferView":0,"componentType":5126,"count":14,"max":[0.015625,0.21875,0.0625],"min":[-0.015625,0.03125,-0.0625],"type":"VEC3"},{"bufferView":1,"componentType":5126,"count":14,"max":[1,0.16439898312091827,0.6000000238418579],"min":[-1,-0.800000011920929,-0.986393928527832],"type":"VEC3"},{"bufferView":2,"componentType":5126,"count":14,"max":[0.4061724543571472,0.671875],"min":[0,0.15625],"type":"VEC2"},{"bufferView":3,"componentType":5123,"count":18,"max":[13],"min":[0],"type":"SCALAR"},{"bufferView":4,"componentType":5126,"count":14,"max":[0.015625,0.21875,0.0625],"min":[-0.015625,0.03125,-0.0625],"type":"VEC3"},{"bufferView":5,"componentType":5126,"count":14,"max":[1,0.16439898312091827,0.6000000238418579],"min":[-1,-0.800000011920929,-0.986393928527832],"type":"VEC3"},{"bufferView":6,"componentType":5126,"count":14,"max":[0.6183743476867676,0.5969786047935486],"min":[0.15625,0.15625],"type":"VEC2"},{"bufferView":7,"componentType":5123,"count":18,"max":[13],"min":[0],"type":"SCALAR"},{"bufferView":8,"componentType":5126,"count":14,"max":[0.015625,0.21875,0.0625],"min":[-0.015625,0.03125,-0.0625],"type":"VEC3"},{"bufferView":9,"componentType":5126,"count":14,"max":[1,0.16439898312091827,0.6000000238418579],"min":[-1,-0.800000011920929,-0.986393928527832],"type":"VEC3"},{"bufferView":10,"componentType":5126,"count":14,"max":[0.6496243476867676,0.734375],"min":[0.00005252051414572634,0],"type":"VEC2"},{"bufferView":11,"componentType":5123,"count":18,"max":[13],"min":[0],"type":"SCALAR"},{"bufferView":12,"componentType":5126,"count":14,"max":[0.015625,0.21875,0.0625],"min":[-0.015625,0.03125,-0.0625],"type":"VEC3"},{"bufferView":13,"componentType":5126,"count":14,"max":[0.9949367046356201,0.800000011920929,0.986393928527832],"min":[-0.9949367046356201,-0.16439898312091827,-0.6000000238418579],"type":"VEC3"},{"bufferView":14,"componentType":5126,"count":14,"max":[0.421875,0.7195292711257935],"min":[0,0],"type":"VEC2"},{"bufferView":15,"componentType":5123,"count":18,"max":[13],"min":[0],"type":"SCALAR"}],"materials":[{"pbrMetallicRoughness":{"metallicFactor":0,"roughnessFactor":1,"baseColorTexture":{"index":0}},"alphaMode":"MASK","alphaCutoff":0.05,"doubleSided":true}],"textures":[{"sampler":0,"source":0,"name":"texture"}],"samplers":[{"magFilter":9728,"minFilter":9728,"wrapS":33071,"wrapT":33071}],"images":[{"mimeType":"image/png","uri":"data:image/png;base64,"}],"meshes":[{"primitives":[{"mode":4,"attributes":{"POSITION":0,"NORMAL":1,"TEXCOORD_0":2},"indices":3,"material":0}]},{"primitives":[{"mode":4,"attributes":{"POSITION":4,"NORMAL":5,"TEXCOORD_0":6},"indices":7,"material":0}]},{"primitives":[{"mode":4,"attributes":{"POSITION":8,"NORMAL":9,"TEXCOORD_0":10},"indices":11,"material":0}]},{"primitives":[{"mode":4,"attributes":{"POSITION":12,"NORMAL":13,"TEXCOORD_0":14},"indices":15,"material":0}]}]}