{"asset":{"version":"2.0","generator":"Blockbench 5.1.1 glTF exporter"},"scenes":[{"nodes":[0,1,2,3,4,5,6,7,8,9,10,11,12,13,14,15,16,17,18],"name":"blockbench_export"}],"scene":0,"nodes":[{"translation":[0,-0.09375,0],"name":"mesh","mesh":0},{"rotation":[-0.5254827333144024,-0.4731467778937193,0.4731468006179103,0.5254827576831153],"translation":[-0.23437499999999994,0.12499999999999999,0],"name":"mesh","mesh":1},{"rotation":[-0.7064337722128928,-0.7064337722128914,-0.030843564597231858,0.03084356459723195],"translation":[6.765421556309548e-17,-0.003125,0],"name":"mesh","mesh":2},{"rotation":[0.4685431186236945,0.5295916563099974,0.5295916816467321,0.468543140263309],"translation":[0.2390625,0.125,0],"name":"mesh","mesh":3},{"translation":[0,-0.09375,0.20312499999999994],"name":"mesh","mesh":4},{"rotation":[0,0.7071067811865475,0,0.7071067811865476],"name":"mesh","mesh":5},{"rotation":[0,0.7071067811865475,0,0.7071067811865476],"name":"mesh","mesh":6},{"name":"mesh","mesh":7},{"name":"mesh","mesh":8},{"translation":[-0.15625,0,0],"name":"mesh","mesh":9},{"rotation":[0,-0.7071067811865475,0,0.7071067811865476],"name":"mesh","mesh":10},{"rotation":[0,-0.7071067811865475,0,0.7071067811865476],"name":"mesh","mesh":11},{"rotation":[0,-1,0,6.123233995736766e-17],"name":"mesh","mesh":12},{"rotation":[0,-1,0,6.123233995736766e-17],"name":"mesh","mesh":13},{"translation":[0,-0.03125,0],"name":"mesh","mesh":14},{"translation":[0,0.03125,0],"name":"mesh","mesh":15},{"translation":[0,0.125,0],"name":"mesh","mesh":16},{"translation":[0,0.28125,0],"name":"mesh","mesh":17},{"translation":[0,0.40625,0],"name":"mesh","mesh":18}],"bufferViews":[{"buffer":0,"byteOffset":0,"byteLength":240,"target":34962,"byteStride":12},{"buffer":0,"byteOffset":240,"byteLength":240,"target":34962,"byteStride":12},{"buffer":0,"byteOffset":480,"byteLength":160,"target":34962,"byteStride":8},{"buffer":0,"byteOffset":640,"byteLength":60,"target":34963},{"buffer":0,"byteOffset":700,"byteLength":240,"target":34962,"byteStride":12},{"buffer":0,"byteOffset":940,"byteLength":240,"target":34962,"byteStride":12},{"buffer":0,"byteOffset":1180,"byteLength":160,"target":34962,"byteStride":8},{"buffer":0,"byteOffset":1340,"byteLength":60,"target":34963},{"buffer":0,"byteOffset":1400,"byteLength":240,"target":34962,"byteStride":12},{"buffer":0,"byteOffset":1640,"byteLength":240,"target":34962,"byteStride":12},{"buffer":0,"byteOffset":1880,"byteLength":160,"target":34962,"byteStride":8},{"buffer":0,"byteOffset":2040,"byteLength":60,"target":34963},{"buffer":0,"byteOffset":2100,"byteLength":240,"target":34962,"byteStride":12},{"buffer":0,"byteOffset":2340,"byteLength":240,"target":34962,"byteStride":12},{"buffer":0,"byteOffset":2580,"byteLength":160,"target":34962,"byteStride":8},{"buffer":0,"byteOffset":2740,"byteLength":60,"target":34963},{"buffer":0,"byteOffset":2800,"byteLength":528,"target":34962,"byteStride":12},{"buffer":0,"byteOffset":3328,"byteLength":528,"target":34962,"byteStride":12},{"buffer":0,"byteOffset":3856,"byteLength":352,"target":34962,"byteStride":8},{"buffer":0,"byteOffset":4208,"byteLength":132,"target":34963},{"buffer":0,"byteOffset":4340,"byteLength":288,"target":34962,"byteStride":12},{"buffer":0,"byteOffset":4628,"byteLength":288,"target":34962,"byteStride":12},{"buffer":0,"byteOffset":4916,"byteLength":192,"target":34962,"byteStride":8},{"buffer":0,"byteOffset":5108,"byteLength":72,"target":34963},{"buffer":0,"byteOffset":5180,"byteLength":288,"target":34962,"byteStride":12},{"buffer":0,"byteOffset":5468,"byteLength":288,"target":34962,"byteStride":12},{"buffer":0,"byteOffset":5756,"byteLength":192,"target":34962,"byteStride":8},{"buffer":0,"byteOffset":5948,"byteLength":72,"target":34963},{"buffer":0,"byteOffset":6020,"byteLength":288,"target":34962,"byteStride":12},{"buffer":0,"byteOffset":6308,"byteLength":288,"target":34962,"byteStride":12},{"buffer":0,"byteOffset":6596,"byteLength":192,"target":34962,"byteStride":8},{"buffer":0,"byteOffset":6788,"byteLength":72,"target":34963},{"buffer":0,"byteOffset":6860,"byteLength":288,"target":34962,"byteStride":12},{"buffer":0,"byteOffset":7148,"byteLength":288,"target":34962,"byteStride":12},{"buffer":0,"byteOffset":7436,"byteLength":192,"target":34962,"byteStride":8},{"buffer":0,"byteOffset":7628,"byteLength":72,"target":34963},{"buffer":0,"byteOffset":7700,"byteLength":240,"target":34962,"byteStride":12},{"buffer":0,"byteOffset":7940,"byteLength":240,"target":34962,"byteStride":12},{"buffer":0,"byteOffset":8180,"byteLength":160,"target":34962,"byteStride":8},{"buffer":0,"byteOffset":8340,"byteLength":60,"target":34963},{"buffer":0,"byteOffset":8400,"byteLength":288,"target":34962,"byteStride":12},{"buffer":0,"byteOffset":8688,"byteLength":288,"target":34962,"byteStride":12},{"buffer":0,"byteOffset":8976,"byteLength":192,"target":34962,"byteStride":8},{"buffer":0,"byteOffset":9168,"byteLength":72,"target":34963},{"buffer":0,"byteOffset":9240,"byteLength":288,"target":34962,"byteStride":12},{"buffer":0,"byteOffset":9528,"byteLength":288,"target":34962,"byteStride":12},{"buffer":0,"byteOffset":9816,"byteLength":192,"target":34962,"byteStride":8},{"buffer":0,"byteOffset":10008,"byteLength":72,"target":34963},{"buffer":0,"byteOffset":10080,"byteLength":288,"target":34962,"byteStride":12},{"buffer":0,"byteOffset":10368,"byteLength":288,"target":34962,"byteStride":12},{"buffer":0,"byteOffset":10656,"byteLength":192,"target":34962,"byteStride":8},{"buffer":0,"byteOffset":10848,"byteLength":72,"target":34963},{"buffer":0,"byteOffset":10920,"byteLength":288,"target":34962,"byteStride":12},{"buffer":0,"byteOffset":11208,"byteLength":288,"target":34962,"byteStride":12},{"buffer":0,"byteOffset":11496,"byteLength":192,"target":34962,"byteStride":8},{"buffer":0,"byteOffset":11688,"byteLength":72,"target":34963},{"buffer":0,"byteOffset":11760,"byteLength":240,"target":34962,"byteStride":12},{"buffer":0,"byteOffset":12000,"byteLength":240,"target":34962,"byteStride":12},{"buffer":0,"byteOffset":12240,"byteLength":160,"target":34962,"byteStride":8},{"buffer":0,"byteOffset":12400,"byteLength":60,"target":34963},{"buffer":0,"byteOffset":12460,"byteLength":240,"target":34962,"byteStride":12},{"buffer":0,"byteOffset":12700,"byteLength":240,"target":34962,"byteStride":12},{"buffer":0,"byteOffset":12940,"byteLength":160,"target":34962,"byteStride":8},{"buffer":0,"byteOffset":13100,"byteLength":60,"target":34963},{"buffer":0,"byteOffset":13160,"byteLength":240,"target":34962,"byteStride":12},{"buffer":0,"byteOffset":13400,"byteLength":240,"target":34962,"byteStride":12},{"buffer":0,"byteOffset":13640,"byteLength":160,"target":34962,"byteStride":8},{"buffer":0,"byteOffset":13800,"byteLength":60,"target":34963},{"buffer":0,"byteOffset":13860,"byteLength":288,"target":34962,"byteStride":12},{"buffer":0,"byteOffset":14148,"byteLength":288,"target":34962,"byteStride":12},{"buffer":0,"byteOffset":14436,"byteLength":192,"target":34962,"byteStride":8},{"buffer":0,"byteOffset":14628,"byteLength":72,"target":34963},{"buffer":0,"byteOffset":14700,"byteLength":432,"target":34962,"byteStride":12},{"buffer":0,"byteOffset":15132,"byteLength":432,"target":34962,"byteStride":12},{"buffer":0,"byteOffset":15564,"byteLength":288,"target":34962,"byteStride":8},{"buffer":0,"byteOffset":15852,"byteLength":108,"target":34963}],"buffers":[{"byteLength":15960,"uri":"data:application/octet-stream;base64,"}],"accessors":[{"bufferView":0,"componentType":5126,"count":20,"max":[0.015625,0.21875,0.015625],"min":[-0.015625,0.09375,-0.015625],"type":"VEC3"},{"bufferView":1,"componentType":5126,"count":20,"max":[1,0,1],"min":[-0.9987523555755615,-0.5642765164375305,-1],"type":"VEC3"},{"bufferView":2,"componentType":5126,"count":20,"max":[0.65625,0.5],"min":[0.5625,0.09375],"type":"VEC2"},{"bufferView":3,"componentType":5123,"count":30,"max":[19],"min":[0],"type":"SCALAR"},{"bufferView":4,"componentType":5126,"count":20,"max":[0.015625,0.22499999403953552,0.012500000186264515],"min":[-0.015625,-0.22499999403953552,-0.012500000186264515],"type":"VEC3"},{"bufferView":5,"componentType":5126,"count":20,"max":[1,0,1],"min":[-1,-1,-1],"type":"VEC3"},{"bufferView":6,"componentType":5126,"count":20,"max":[0.484375,0.453125],"min":[0,0.234375],"type":"VEC2"},{"bufferView":7,"componentType":5123,"count":30,"max":[19],"min":[0],"type":"SCALAR"},{"bufferView":8,"componentType":5126,"count":20,"max":[0.12375334650278091,0.22499999403953552,0.25814101099967957],"min":[0.09250334650278091,-0.22499999403953552,0.23314101994037628],"type":"VEC3"},{"bufferView":9,"componentType":5126,"count":20,"max":[1,0,1],"min":[-1,-1,-1],"type":"VEC3"},{"bufferView":10,"componentType":5126,"count":20,"max":[0.359375,0.21875],"min":[0,0],"type":"VEC2"},{"bufferView":11,"componentType":5123,"count":30,"max":[19],"min":[0],"type":"SCALAR"},{"bufferView":12,"componentType":5126,"count":20,"max":[0.017503343522548676,0.22499999403953552,0.008141021244227886],"min":[-0.013746656477451324,-0.22499999403953552,-0.01685897819697857],"type":"VEC3"},{"bufferView":13,"componentType":5126,"count":20,"max":[1,0,1],"min":[-1,-1,-1],"type":"VEC3"},{"bufferView":14,"componentType":5126,"count":20,"max":[0.359375,0.234375],"min":[0.125,0],"type":"VEC2"},{"bufferView":15,"componentType":5123,"count":30,"max":[19],"min":[0],"type":"SCALAR"},{"bufferView":16,"componentType":5126,"count":44,"max":[0.26249998807907104,0.21795159578323364,0.03125],"min":[-0.265625,0.09375,-0.017147580161690712],"type":"VEC3"},{"bufferView":17,"componentType":5126,"count":44,"max":[0.9938910007476807,1,0.9950371980667114],"min":[-0.9925163984298706,-1,-1],"type":"VEC3"},{"bufferView":18,"componentType":5126,"count":44,"max":[0.608593761920929,0.4096859097480774],"min":[0.11290234327316284,0],"type":"VEC2"},{"bufferView":19,"componentType":5123,"count":66,"max":[43],"min":[0],"type":"SCALAR"},{"bufferView":20,"componentType":5126,"count":24,"max":[0.265625,0.3125,0.265625],"min":[0.203125,0,0.203125],"type":"VEC3"},{"bufferView":21,"componentType":5126,"count":24,"max":[0.9950371980667114,1,0.9950371980667114],"min":[-0.9950371980667114,-1,-0.9950371980667114],"type":"VEC3"},{"bufferView":22,"componentType":5126,"count":24,"max":[0.4156136214733124,0.39372724294662476],"min":[0.125,0],"type":"VEC2"},{"bufferView":23,"componentType":5123,"count":36,"max":[23],"min":[0],"type":"SCALAR"},{"bufferView":24,"componentType":5126,"count":24,"max":[0.24687500298023224,0.3125,0.24687500298023224],"min":[0.09687499701976776,0.1875,0.109375],"type":"VEC3"},{"bufferView":25,"componentType":5126,"count":24,"max":[0.7249994277954102,1,0.7619393467903137],"min":[-0.7249994277954102,-1,-0.7619393467903137],"type":"VEC3"},{"bufferView":26,"componentType":5126,"count":24,"max":[0.554729163646698,0.546875],"min":[0,0],"type":"VEC2"},{"bufferView":27,"componentType":5123,"count":36,"max":[23],"min":[0],"type":"SCALAR"},{"bufferView":28,"componentType":5126,"count":24,"max":[0.265625,0.3125,0.265625],"min":[0.203125,0,0.203125],"type":"VEC3"},{"bufferView":29,"componentType":5126,"count":24,"max":[0.9950371980667114,1,0.9950371980667114],"min":[-0.9950371980667114,-1,-0.9950371980667114],"type":"VEC3"},{"bufferView":30,"componentType":5126,"count":24,"max":[0.4468636214733124,0.484375],"min":[0.0625,0.03125],"type":"VEC2"},{"bufferView":31,"componentType":5123,"count":36,"max":[23],"min":[0],"type":"SCALAR"},{"bufferView":32,"componentType":5126,"count":24,"max":[0.24687500298023224,0.3125,0.24687500298023224],"min":[0.09687499701976776,0.1875,0.109375],"type":"VEC3"},{"bufferView":33,"componentType":5126,"count":24,"max":[0.7249994277954102,1,0.7619393467903137],"min":[-0.7249994277954102,-1,-0.7619393467903137],"type":"VEC3"},{"bufferView":34,"componentType":5126,"count":24,"max":[0.5239613056182861,0.46875],"min":[0.375,0.09375],"type":"VEC2"},{"bufferView":35,"componentType":5123,"count":36,"max":[23],"min":[0],"type":"SCALAR"},{"bufferView":36,"componentType":5126,"count":20,"max":[0.171875,0.31562501192092896,0.21875],"min":[0.140625,0.125,0.109375],"type":"VEC3"},{"bufferView":37,"componentType":5126,"count":20,"max":[1,1,0.9253051280975342],"min":[-1,-0.37922340631484985,-0.9253051280975342],"type":"VEC3"},{"bufferView":38,"componentType":5126,"count":20,"max":[0.359375,0.5625],"min":[0,0.4375],"type":"VEC2"},{"bufferView":39,"componentType":5123,"count":30,"max":[19],"min":[0],"type":"SCALAR"},{"bufferView":40,"componentType":5126,"count":24,"max":[0.265625,0.3125,0.265625],"min":[0.203125,0,0.203125],"type":"VEC3"},{"bufferView":41,"componentType":5126,"count":24,"max":[0.9950371980667114,1,0.9950371980667114],"min":[-0.9950371980667114,-1,-0.9950371980667114],"type":"VEC3"},{"bufferView":42,"componentType":5126,"count":24,"max":[0.484375,0.46875],"min":[0.21875,0.0625],"type":"VEC2"},{"bufferView":43,"componentType":5123,"count":36,"max":[23],"min":[0],"type":"SCALAR"},{"bufferView":44,"componentType":5126,"count":24,"max":[0.24687500298023224,0.3125,0.24687500298023224],"min":[0.09687499701976776,0.1875,0.109375],"type":"VEC3"},{"bufferView":45,"componentType":5126,"count":24,"max":[0.7249994277954102,1,0.7619393467903137],"min":[-0.7249994277954102,-1,-0.7619393467903137],"type":"VEC3"},{"bufferView":46,"componentType":5126,"count":24,"max":[0.585979163646698,0.5625],"min":[0.34375,0.03125],"type":"VEC2"},{"bufferView":47,"componentType":5123,"count":36,"max":[23],"min":[0],"type":"SCALAR"},{"bufferView":48,"componentType":5126,"count":24,"max":[0.265625,0.3125,0.265625],"min":[0.203125,0,0.203125],"type":"VEC3"},{"bufferView":49,"componentType":5126,"count":24,"max":[0.9950371980667114,1,0.9950371980667114],"min":[-0.9950371980667114,-1,-0.9950371980667114],"type":"VEC3"},{"bufferView":50,"componentType":5126,"count":24,"max":[0.4468636214733124,0.5],"min":[0.1875,0.125],"type":"VEC2"},{"bufferView":51,"componentType":5123,"count":36,"max":[23],"min":[0],"type":"SCALAR"},{"bufferView":52,"componentType":5126,"count":24,"max":[0.24687500298023224,0.3125,0.24687500298023224],"min":[0.09687499701976776,0.1875,0.109375],"type":"VEC3"},{"bufferView":53,"componentType":5126,"count":24,"max":[0.7249994277954102,1,0.7619393467903137],"min":[-0.7249994277954102,-1,-0.7619393467903137],"type":"VEC3"},{"bufferView":54,"componentType":5126,"count":24,"max":[0.585979163646698,0.578125],"min":[0.15625,0.0625],"type":"VEC2"},{"bufferView":55,"componentType":5123,"count":36,"max":[23],"min":[0],"type":"SCALAR"},{"bufferView":56,"componentType":5126,"count":20,"max":[0.03125,0.1875,0.03125],"min":[-0.03125,0.0625,-0.03125],"type":"VEC3"},{"bufferView":57,"componentType":5126,"count":20,"max":[1,0,1],"min":[-0.9972677826881409,-0.7392054796218872,-0.9980525970458984],"type":"VEC3"},{"bufferView":58,"componentType":5126,"count":20,"max":[0.59375,0.65625],"min":[0.15625,0.53125],"type":"VEC2"},{"bufferView":59,"componentType":5123,"count":30,"max":[19],"min":[0],"type":"SCALAR"},{"bufferView":60,"componentType":5126,"count":20,"max":[0.0625,0.25,0.0625],"min":[-0.0625,0.0625,-0.0625],"type":"VEC3"},{"bufferView":61,"componentType":5126,"count":20,"max":[0.9945054650306702,-0.03331483155488968,0.9944579601287842],"min":[-0.9994449019432068,-0.8874167203903198,-0.9967479705810547],"type":"VEC3"},{"bufferView":62,"componentType":5126,"count":20,"max":[0.53125,0.6499999761581421],"min":[0,0.15625],"type":"VEC2"},{"bufferView":63,"componentType":5123,"count":30,"max":[19],"min":[0],"type":"SCALAR"},{"bufferView":64,"componentType":5126,"count":20,"max":[0.09375,0.1875,0.09375],"min":[-0.09375,0.0625,-0.09375],"type":"VEC3"},{"bufferView":65,"componentType":5126,"count":20,"max":[0.9950371980667114,-0.09950371831655502,0.9805806875228882],"min":[-0.991227924823761,-0.9368001222610474,-0.9883716702461243],"type":"VEC3"},{"bufferView":66,"componentType":5126,"count":20,"max":[0.65625,0.5],"min":[0,0],"type":"VEC2"},{"bufferView":67,"componentType":5123,"count":30,"max":[19],"min":[0],"type":"SCALAR"},{"bufferView":68,"componentType":5126,"count":24,"max":[0.15625,0.21875,0.15625],"min":[-0.15625,0.03125,-0.15625],"type":"VEC3"},{"bufferView":69,"componentType":5126,"count":24,"max":[1,1,1],"min":[-1,-1,-1],"type":"VEC3"},{"bufferView":70,"componentType":5126,"count":24,"max":[0.328125,0.421875],"min":[0,0],"type":"VEC2"},{"bufferView":71,"componentType":5123,"count":36,"max":[23],"min":[0],"type":"SCALAR"},{"bufferView":72,"componentType":5126,"count":36,"max":[0.09375,0.1875,0.09375],"min":[-0.09375,0.09375,-0.09375],"type":"VEC3"},{"bufferView":73,"componentType":5126,"count":36,"max":[1,1,1],"min":[-1,0,-1],"type":"VEC3"},{"bufferView":74,"componentType":5126,"count":36,"max":[0.4375,0.46875],"min":[0,0.3125],"type":"VEC2"},{"bufferView":75,"componentType":5123,"count":54,"max":[35],"min":[0],"type":"SCALAR"}],"materials":[{"pbrMetallicRoughness":{"metallicFactor":0,"roughnessFactor":1,"baseColorTexture":{"index":0}},"alphaMode":"MASK","alphaCutoff":0.05,"doubleSided":true},{"pbrMetallicRoughness":{"metallicFactor":0,"roughnessFactor":1,"baseColorTexture":{"index":1}},"alphaMode":"MASK","alphaCutoff":0.05,"doubleSided":true},{"pbrMetallicRoughness":{"metallicFactor":0,"roughnessFactor":1,"baseColorTexture":{"index":2}},"alphaMode":"MASK","alphaCutoff":0.05,"doubleSided":true}],"textures":[{"sampler":0,"source":0,"name":"texture"},{"sampler":1,"source":1,"name":"texture"},{"sampler":2,"source":2,"name":"texture"}],"samplers":[{"magFilter":9728,"minFilter":9728,"wrapS":33071,"wrapT":33071},{"magFilter":9728,"minFilter":9728,"wrapS":33071,"wrapT":33071},{"magFilter":9728,"minFilter":9728,"wrapS":33071,"wrapT":33071}],"images":[{"mimeType":"image/png","uri":"data:image/png;base64,"},{"mimeType":"image/png","uri":"data:image/png;base64,"},{"mimeType":"image/png","uri":"data:image/png;base64,"}],"meshes":[{"primitives":[{"mode":4,"attributes":{"POSITION":0,"NORMAL":1,"TEXCOORD_0":2},"indices":3,"material":0}]},{"primitives":[{"mode":4,"attributes":{"POSITION":4,"NORMAL":5,"TEXCOORD_0":6},"indices":7,"material":1}]},{"primitives":[{"mode":4,"attributes":{"POSITION":8,"NORMAL":9,"TEXCOORD_0":10},"indices":11,"material":1}]},{"primitives":[{"mode":4,"attributes":{"POSITION":12,"NORMAL":13,"TEXCOORD_0":14},"indices":15,"material":1}]},{"primitives":[{"mode":4,"attributes":{"POSITION":16,"NORMAL":17,"TEXCOORD_0":18},"indices":19,"material":2}]},{"primitives":[{"mode":4,"attributes":{"POSITION":20,"NORMAL":21,"TEXCOORD_0":22},"indices":23,"material":1}]},{"primitives":[{"mode":4,"attributes":{"POSITION":24,"NORMAL":25,"TEXCOORD_0":26},"indices":27,"material":1}]},{"primitives":[{"mode":4,"attributes":{"POSITION":28,"NORMAL":29,"TEXCOORD_0":30},"indices":31,"material":1}]},{"primitives":[{"mode":4,"attributes":{"POSITION":32,"NORMAL":33,"TEXCOORD_0":34},"indices":35,"material":1}]},{"primitives":[{"mode":4,"attributes":{"POSITION":36,"NORMAL":37,"TEXCOORD_0":38},"indices":39,"material":2}]},{"primitives":[{"mode":4,"attributes":{"POSITION":40,"NORMAL":41,"TEXCOORD_0":42},"indices":43,"material":1}]},{"primitives":[{"mode":4,"attributes":{"POSITION":44,"NORMAL":45,"TEXCOORD_0":46},"indices":47,"material":1}]},{"primitives":[{"mode":4,"attributes":{"POSITION":48,"NORMAL":49,"TEXCOORD_0":50},"indices":51,"material":1}]},{"primitives":[{"mode":4,"attributes":{"POSITION":52,"NORMAL":53,"TEXCOORD_0":54},"indices":55,"material":1}]},{"primitives":[{"mode":4,"attributes":{"POSITION":56,"NORMAL":57,"TEXCOORD_0":58},"indices":59,"material":0}]},{"primitives":[{"mode":4,"attributes":{"POSITION":60,"NORMAL":61,"TEXCOORD_0":62},"indices":63,"material":0}]},{"primitives":[{"mode":4,"attributes":{"POSITION":64,"NORMAL":65,"TEXCOORD_0":66},"indices":67,"material":0}]},{"primitives":[{"mode":4,"attributes":{"POSITION":68,"NORMAL":69,"TEXCOORD_0":70},"indices":71,"material":2}]},{"primitives":[{"mode":4,"attributes":{"POSITION":72,"NORMAL":73,"TEXCOORD_0":74},"indices":75,"material":2}]}]}