{"asset":{"version":"2.0","generator":"Blockbench 5.0.7 glTF exporter"},"scenes":[{"nodes":[0,1,2,3,4,5],"name":"blockbench_export"}],"scene":0,"nodes":[{"translation":[0,0.59375,0],"name":"sphere","mesh":0},{"translation":[0.0625,0.34375,0],"name":"sphere","mesh":1},{"translation":[0,0.125,0],"name":"sphere","mesh":2},{"translation":[-0.125,0.25,-0.15625],"name":"mesh","mesh":3},{"translation":[-0.125,0.25,0.15625],"name":"mesh","mesh":4},{"rotation":[0,0,0.9949685182509117,0.10018806161207632],"translation":[-0.05625,0.4125,0],"name":"cone","mesh":5}],"bufferViews":[{"buffer":0,"byteOffset":0,"byteLength":5760,"target":34962,"byteStride":12},{"buffer":0,"byteOffset":5760,"byteLength":5760,"target":34962,"byteStride":12},{"buffer":0,"byteOffset":11520,"byteLength":3840,"target":34962,"byteStride":8},{"buffer":0,"byteOffset":15360,"byteLength":1344,"target":34963},{"buffer":0,"byteOffset":16704,"byteLength":5760,"target":34962,"byteStride":12},{"buffer":0,"byteOffset":22464,"byteLength":5760,"target":34962,"byteStride":12},{"buffer":0,"byteOffset":28224,"byteLength":3840,"target":34962,"byteStride":8},{"buffer":0,"byteOffset":32064,"byteLength":1344,"target":34963},{"buffer":0,"byteOffset":33408,"byteLength":5760,"target":34962,"byteStride":12},{"buffer":0,"byteOffset":39168,"byteLength":5760,"target":34962,"byteStride":12},{"buffer":0,"byteOffset":44928,"byteLength":3840,"target":34962,"byteStride":8},{"buffer":0,"byteOffset":48768,"byteLength":1344,"target":34963},{"buffer":0,"byteOffset":50112,"byteLength":288,"target":34962,"byteStride":12},{"buffer":0,"byteOffset":50400,"byteLength":288,"target":34962,"byteStride":12},{"buffer":0,"byteOffset":50688,"byteLength":192,"target":34962,"byteStride":8},{"buffer":0,"byteOffset":50880,"byteLength":72,"target":34963},{"buffer":0,"byteOffset":50952,"byteLength":288,"target":34962,"byteStride":12},{"buffer":0,"byteOffset":51240,"byteLength":288,"target":34962,"byteStride":12},{"buffer":0,"byteOffset":51528,"byteLength":192,"target":34962,"byteStride":8},{"buffer":0,"byteOffset":51720,"byteLength":72,"target":34963},{"buffer":0,"byteOffset":51792,"byteLength":504,"target":34962,"byteStride":12},{"buffer":0,"byteOffset":52296,"byteLength":504,"target":34962,"byteStride":12},{"buffer":0,"byteOffset":52800,"byteLength":336,"target":34962,"byteStride":8},{"buffer":0,"byteOffset":53136,"byteLength":84,"target":34963}],"buffers":[{"byteLength":53220,"uri":"data:application/octet-stream;base64,"}],"accessors":[{"bufferView":0,"componentType":5126,"count":480,"max":[0.1875,0.1875,0.1875],"min":[-0.1875,-0.1875,-0.1875],"type":"VEC3"},{"bufferView":1,"componentType":5126,"count":480,"max":[0.9807854890823364,0.9807855486869812,0.9807854890823364],"min":[-0.9807854890823364,-0.9807855486869812,-0.9807854890823364],"type":"VEC3"},{"bufferView":2,"componentType":5126,"count":480,"max":[0.5546799898147583,0.4851645231246948],"min":[0,0],"type":"VEC2"},{"bufferView":3,"componentType":5123,"count":672,"max":[479],"min":[0],"type":"SCALAR"},{"bufferView":4,"componentType":5126,"count":480,"max":[0.125,0.125,0.125],"min":[-0.125,-0.125,-0.125],"type":"VEC3"},{"bufferView":5,"componentType":5126,"count":480,"max":[0.9807854294776917,0.9807854294776917,0.9807854294776917],"min":[-0.9807854294776917,-0.9807854294776917,-0.9807854294776917],"type":"VEC3"},{"bufferView":6,"componentType":5126,"count":480,"max":[0.71875,0.75],"min":[0.0017959375400096178,0],"type":"VEC2"},{"bufferView":7,"componentType":5123,"count":672,"max":[479],"min":[0],"type":"SCALAR"},{"bufferView":8,"componentType":5126,"count":480,"max":[0.0625,0.0625,0.0625],"min":[-0.0625,-0.0625,-0.0625],"type":"VEC3"},{"bufferView":9,"componentType":5126,"count":480,"max":[0.9807856678962708,0.9807857871055603,0.9807856678962708],"min":[-0.9807856678962708,-0.9807857871055603,-0.9807856678962708],"type":"VEC3"},{"bufferView":10,"componentType":5126,"count":480,"max":[0.0248624999076128,0.024387478828430176],"min":[0,0],"type":"VEC2"},{"bufferView":11,"componentType":5123,"count":672,"max":[479],"min":[0],"type":"SCALAR"},{"bufferView":12,"componentType":5126,"count":24,"max":[0.0625,0.125,0.0625],"min":[-0.0625,0,-0.0625],"type":"VEC3"},{"bufferView":13,"componentType":5126,"count":24,"max":[1,1,1],"min":[-1,-1,-1],"type":"VEC3"},{"bufferView":14,"componentType":5126,"count":24,"max":[0.875,0.875],"min":[0,0],"type":"VEC2"},{"bufferView":15,"componentType":5123,"count":36,"max":[23],"min":[0],"type":"SCALAR"},{"bufferView":16,"componentType":5126,"count":24,"max":[0.0625,0.125,0.0625],"min":[-0.0625,0,-0.0625],"type":"VEC3"},{"bufferView":17,"componentType":5126,"count":24,"max":[1,1,1],"min":[-1,-1,-1],"type":"VEC3"},{"bufferView":18,"componentType":5126,"count":24,"max":[0.875,0.875],"min":[0,0],"type":"VEC2"},{"bufferView":19,"componentType":5123,"count":36,"max":[23],"min":[0],"type":"SCALAR"},{"bufferView":20,"componentType":5126,"count":42,"max":[0.18121062219142914,0.09500468522310257,0.203125],"min":[-0.12299687415361404,-0.09375,-0.203125],"type":"VEC3"},{"bufferView":21,"componentType":5126,"count":42,"max":[0.6317057609558105,0.7752082347869873,0.6751292943954468],"min":[-0.4089634418487549,-1,-0.6723734140396118],"type":"VEC3"},{"bufferView":22,"componentType":5126,"count":42,"max":[0.29431092739105225,0.5794999599456787],"min":[0.002789062447845936,0],"type":"VEC2"},{"bufferView":23,"componentType":5123,"count":42,"max":[41],"min":[0],"type":"SCALAR"}],"materials":[{"pbrMetallicRoughness":{"metallicFactor":0,"roughnessFactor":1,"baseColorTexture":{"index":0}},"alphaMode":"MASK","alphaCutoff":0.05,"doubleSided":true},{"pbrMetallicRoughness":{"metallicFactor":0,"roughnessFactor":1,"baseColorTexture":{"index":1}},"alphaMode":"MASK","alphaCutoff":0.05,"doubleSided":true},{"pbrMetallicRoughness":{"metallicFactor":0,"roughnessFactor":1,"baseColorTexture":{"index":2}},"alphaMode":"MASK","alphaCutoff":0.05,"doubleSided":true},{"pbrMetallicRoughness":{"metallicFactor":0,"roughnessFactor":1,"baseColorTexture":{"index":3}},"alphaMode":"MASK","alphaCutoff":0.05,"doubleSided":true}],"textures":[{"sampler":0,"source":0,"name":"texture1.png"},{"sampler":1,"source":1,"name":"texture.png"},{"sampler":2,"source":2,"name":"texture3.png"},{"sampler":3,"source":3,"name":"texture2.png"}],"samplers":[{"magFilter":9728,"minFilter":9728,"wrapS":33071,"wrapT":33071},{"magFilter":9728,"minFilter":9728,"wrapS":33071,"wrapT":33071},{"magFilter":9728,"minFilter":9728,"wrapS":33071,"wrapT":33071},{"magFilter":9728,"minFilter":9728,"wrapS":33071,"wrapT":33071}],"images":[{"mimeType":"image/png","uri":"data:image/png;base64,"},{"mimeType":"image/png","uri":"data:image/png;base64,"},{"mimeType":"image/png","uri":"data:image/png;base64,"},{"mimeType":"image/png","uri":"data:image/png;base64,"}],"meshes":[{"primitives":[{"mode":4,"attributes":{"POSITION":0,"NORMAL":1,"TEXCOORD_0":2},"indices":3,"material":0}]},{"primitives":[{"mode":4,"attributes":{"POSITION":4,"NORMAL":5,"TEXCOORD_0":6},"indices":7,"material":1}]},{"primitives":[{"mode":4,"attributes":{"POSITION":8,"NORMAL":9,"TEXCOORD_0":10},"indices":11,"material":0}]},{"primitives":[{"mode":4,"attributes":{"POSITION":12,"NORMAL":13,"TEXCOORD_0":14},"indices":15,"material":2}]},{"primitives":[{"mode":4,"attributes":{"POSITION":16,"NORMAL":17,"TEXCOORD_0":18},"indices":19,"material":2}]},{"primitives":[{"mode":4,"attributes":{"POSITION":20,"NORMAL":21,"TEXCOORD_0":22},"indices":23,"material":3}]}]}