{"asset":{"version":"2.0","generator":"Blockbench 5.0.7 glTF exporter"},"scenes":[{"nodes":[0,1,2,3,4,10],"name":"blockbench_export"}],"scene":0,"nodes":[{"translation":[-0.20312500000000006,0.09375,0],"name":"mesh","mesh":0},{"translation":[0.20312499999999994,0.09375,0],"name":"mesh","mesh":1},{"rotation":[0,0,-0.7071067811865475,0.7071067811865476],"translation":[-0.125,0.46875,0],"name":"mesh","mesh":2},{"rotation":[0,0,-0.7071067811865475,0.7071067811865476],"translation":[-0.125,0.0625,0],"name":"mesh","mesh":3},{"rotation":[0.7071067811865475,0,0,0.7071067811865476],"translation":[0,0.28125,-0.125],"name":"cylinder","mesh":4},{"rotation":[0.5,0.5,0.4999999999999999,0.5000000000000001],"translation":[0,0,0.125],"name":"plane","mesh":5},{"rotation":[0.11061587104123717,0.6984011233337104,0.6984011233337103,0.1106158710412372],"translation":[0,0,0.125],"name":"plane","mesh":6},{"rotation":[0.32101976096010304,-0.6300367553350504,-0.6300367553350504,0.3210197609601031],"translation":[0,0,0.125],"name":"plane","mesh":7},{"rotation":[0.6300367553350504,-0.32101976096010304,-0.32101976096010304,0.6300367553350505],"translation":[0,0,0.125],"name":"plane","mesh":8},{"rotation":[0.6984011233337103,0.11061587104123716,0.11061587104123714,0.6984011233337104],"translation":[0,0,0.125],"name":"plane","mesh":9},{"translation":[0,0.28125,-0.125],"name":"group","children":[5,6,7,8,9]}],"bufferViews":[{"buffer":0,"byteOffset":0,"byteLength":288,"target":34962,"byteStride":12},{"buffer":0,"byteOffset":288,"byteLength":288,"target":34962,"byteStride":12},{"buffer":0,"byteOffset":576,"byteLength":192,"target":34962,"byteStride":8},{"buffer":0,"byteOffset":768,"byteLength":72,"target":34963},{"buffer":0,"byteOffset":840,"byteLength":288,"target":34962,"byteStride":12},{"buffer":0,"byteOffset":1128,"byteLength":288,"target":34962,"byteStride":12},{"buffer":0,"byteOffset":1416,"byteLength":192,"target":34962,"byteStride":8},{"buffer":0,"byteOffset":1608,"byteLength":72,"target":34963},{"buffer":0,"byteOffset":1680,"byteLength":288,"target":34962,"byteStride":12},{"buffer":0,"byteOffset":1968,"byteLength":288,"target":34962,"byteStride":12},{"buffer":0,"byteOffset":2256,"byteLength":192,"target":34962,"byteStride":8},{"buffer":0,"byteOffset":2448,"byteLength":72,"target":34963},{"buffer":0,"byteOffset":2520,"byteLength":288,"target":34962,"byteStride":12},{"buffer":0,"byteOffset":2808,"byteLength":288,"target":34962,"byteStride":12},{"buffer":0,"byteOffset":3096,"byteLength":192,"target":34962,"byteStride":8},{"buffer":0,"byteOffset":3288,"byteLength":72,"target":34963},{"buffer":0,"byteOffset":3360,"byteLength":1440,"target":34962,"byteStride":12},{"buffer":0,"byteOffset":4800,"byteLength":1440,"target":34962,"byteStride":12},{"buffer":0,"byteOffset":6240,"byteLength":960,"target":34962,"byteStride":8},{"buffer":0,"byteOffset":7200,"byteLength":288,"target":34963},{"buffer":0,"byteOffset":7488,"byteLength":36,"target":34962,"byteStride":12},{"buffer":0,"byteOffset":7524,"byteLength":36,"target":34962,"byteStride":12},{"buffer":0,"byteOffset":7560,"byteLength":24,"target":34962,"byteStride":8},{"buffer":0,"byteOffset":7584,"byteLength":8,"target":34963},{"buffer":0,"byteOffset":7592,"byteLength":36,"target":34962,"byteStride":12},{"buffer":0,"byteOffset":7628,"byteLength":36,"target":34962,"byteStride":12},{"buffer":0,"byteOffset":7664,"byteLength":24,"target":34962,"byteStride":8},{"buffer":0,"byteOffset":7688,"byteLength":8,"target":34963},{"buffer":0,"byteOffset":7696,"byteLength":36,"target":34962,"byteStride":12},{"buffer":0,"byteOffset":7732,"byteLength":36,"target":34962,"byteStride":12},{"buffer":0,"byteOffset":7768,"byteLength":24,"target":34962,"byteStride":8},{"buffer":0,"byteOffset":7792,"byteLength":8,"target":34963},{"buffer":0,"byteOffset":7800,"byteLength":36,"target":34962,"byteStride":12},{"buffer":0,"byteOffset":7836,"byteLength":36,"target":34962,"byteStride":12},{"buffer":0,"byteOffset":7872,"byteLength":24,"target":34962,"byteStride":8},{"buffer":0,"byteOffset":7896,"byteLength":8,"target":34963},{"buffer":0,"byteOffset":7904,"byteLength":36,"target":34962,"byteStride":12},{"buffer":0,"byteOffset":7940,"byteLength":36,"target":34962,"byteStride":12},{"buffer":0,"byteOffset":7976,"byteLength":24,"target":34962,"byteStride":8},{"buffer":0,"byteOffset":8000,"byteLength":8,"target":34963},{"buffer":0,"byteOffset":8008,"byteLength":20},{"buffer":0,"byteOffset":8028,"byteLength":80}],"buffers":[{"byteLength":8108,"uri":"data:application/octet-stream;base64,"}],"accessors":[{"bufferView":0,"componentType":5126,"count":24,"max":[0.015625,0.34375,0.09375],"min":[-0.015625,-0.09375,-0.09375],"type":"VEC3"},{"bufferView":1,"componentType":5126,"count":24,"max":[1,1,1],"min":[-1,-1,-1],"type":"VEC3"},{"bufferView":2,"componentType":5126,"count":24,"max":[0.46875,0.90625],"min":[0,0],"type":"VEC2"},{"bufferView":3,"componentType":5123,"count":36,"max":[23],"min":[0],"type":"SCALAR"},{"bufferView":4,"componentType":5126,"count":24,"max":[0.015625,0.34375,0.09375],"min":[-0.015625,-0.09375,-0.09375],"type":"VEC3"},{"bufferView":5,"componentType":5126,"count":24,"max":[1,1,1],"min":[-1,-1,-1],"type":"VEC3"},{"bufferView":6,"componentType":5126,"count":24,"max":[0.46875,0.90625],"min":[0,0],"type":"VEC2"},{"bufferView":7,"componentType":5123,"count":36,"max":[23],"min":[0],"type":"SCALAR"},{"bufferView":8,"componentType":5126,"count":24,"max":[0.03125,0.375,0.09375],"min":[-0.03125,-0.125,-0.09375],"type":"VEC3"},{"bufferView":9,"componentType":5126,"count":24,"max":[1,1,1],"min":[-1,-1,-1],"type":"VEC3"},{"bufferView":10,"componentType":5126,"count":24,"max":[0.296875,0.515625],"min":[0,0],"type":"VEC2"},{"bufferView":11,"componentType":5123,"count":36,"max":[23],"min":[0],"type":"SCALAR"},{"bufferView":12,"componentType":5126,"count":24,"max":[0.03125,0.3125,0.09375],"min":[-0.03125,-0.0625,-0.09375],"type":"VEC3"},{"bufferView":13,"componentType":5126,"count":24,"max":[1,1,1],"min":[-1,-1,-1],"type":"VEC3"},{"bufferView":14,"componentType":5126,"count":24,"max":[0.40625,0.78125],"min":[0,0],"type":"VEC2"},{"bufferView":15,"componentType":5123,"count":36,"max":[23],"min":[0],"type":"SCALAR"},{"bufferView":16,"componentType":5126,"count":120,"max":[0.0625,0.140625,0.0625],"min":[-0.0625,0.109375,-0.0625],"type":"VEC3"},{"bufferView":17,"componentType":5126,"count":120,"max":[1,1,1],"min":[-1,-1,-1],"type":"VEC3"},{"bufferView":18,"componentType":5126,"count":120,"max":[0.5379812717437744,0.5625],"min":[0,0],"type":"VEC2"},{"bufferView":19,"componentType":5123,"count":144,"max":[119],"min":[0],"type":"SCALAR"},{"bufferView":20,"componentType":5126,"count":3,"max":[0.03125,0,6.938893903907228e-18],"min":[-0.1875,-1.3877787807814457e-17,-0.0625],"type":"VEC3"},{"bufferView":21,"componentType":5126,"count":3,"max":[3.172065926445695e-17,1,-1.903239489692968e-16],"min":[3.172065926445695e-17,1,-1.903239489692968e-16],"type":"VEC3"},{"bufferView":22,"componentType":5126,"count":3,"max":[0.46875134110450745,0.12500077486038208],"min":[0.031248653307557106,0],"type":"VEC2"},{"bufferView":23,"componentType":5123,"count":3,"max":[2],"min":[0],"type":"SCALAR"},{"bufferView":24,"componentType":5126,"count":3,"max":[0.03125,0,6.938893903907228e-18],"min":[-0.1875,-1.3877787807814457e-17,-0.0625],"type":"VEC3"},{"bufferView":25,"componentType":5126,"count":3,"max":[3.172065926445695e-17,1,-1.903239489692968e-16],"min":[3.172065926445695e-17,1,-1.903239489692968e-16],"type":"VEC3"},{"bufferView":26,"componentType":5126,"count":3,"max":[0.46875134110450745,0.12500077486038208],"min":[0.031248653307557106,0],"type":"VEC2"},{"bufferView":27,"componentType":5123,"count":3,"max":[2],"min":[0],"type":"SCALAR"},{"bufferView":28,"componentType":5126,"count":3,"max":[0.03125,0,6.938893903907228e-18],"min":[-0.1875,-1.3877787807814457e-17,-0.0625],"type":"VEC3"},{"bufferView":29,"componentType":5126,"count":3,"max":[3.172065926445695e-17,1,-1.903239489692968e-16],"min":[3.172065926445695e-17,1,-1.903239489692968e-16],"type":"VEC3"},{"bufferView":30,"componentType":5126,"count":3,"max":[0.46875134110450745,0.12500077486038208],"min":[0.031248653307557106,0],"type":"VEC2"},{"bufferView":31,"componentType":5123,"count":3,"max":[2],"min":[0],"type":"SCALAR"},{"bufferView":32,"componentType":5126,"count":3,"max":[0.03125,0,6.938893903907228e-18],"min":[-0.1875,-1.3877787807814457e-17,-0.0625],"type":"VEC3"},{"bufferView":33,"componentType":5126,"count":3,"max":[3.172065926445695e-17,1,-1.903239489692968e-16],"min":[3.172065926445695e-17,1,-1.903239489692968e-16],"type":"VEC3"},{"bufferView":34,"componentType":5126,"count":3,"max":[0.46875134110450745,0.12500077486038208],"min":[0.031248653307557106,0],"type":"VEC2"},{"bufferView":35,"componentType":5123,"count":3,"max":[2],"min":[0],"type":"SCALAR"},{"bufferView":36,"componentType":5126,"count":3,"max":[0.03125,0,6.938893903907228e-18],"min":[-0.1875,-1.3877787807814457e-17,-0.0625],"type":"VEC3"},{"bufferView":37,"componentType":5126,"count":3,"max":[3.172065926445695e-17,1,-1.903239489692968e-16],"min":[3.172065926445695e-17,1,-1.903239489692968e-16],"type":"VEC3"},{"bufferView":38,"componentType":5126,"count":3,"max":[0.46875134110450745,0.12500077486038208],"min":[0.031248653307557106,0],"type":"VEC2"},{"bufferView":39,"componentType":5123,"count":3,"max":[2],"min":[0],"type":"SCALAR"},{"bufferView":40,"componentType":5126,"count":5,"max":[1],"min":[0],"type":"SCALAR"},{"bufferView":41,"componentType":5126,"count":5,"max":[0,0,1,1],"min":[0,0,0,-1],"type":"VEC4"}],"materials":[{"pbrMetallicRoughness":{"metallicFactor":0,"roughnessFactor":1,"baseColorTexture":{"index":0}},"alphaMode":"MASK","alphaCutoff":0.05,"doubleSided":true},{"pbrMetallicRoughness":{"metallicFactor":0,"roughnessFactor":1,"baseColorTexture":{"index":1}},"alphaMode":"MASK","alphaCutoff":0.05,"doubleSided":true},{"pbrMetallicRoughness":{"metallicFactor":0,"roughnessFactor":1,"baseColorTexture":{"index":2}},"alphaMode":"MASK","alphaCutoff":0.05,"doubleSided":true},{"pbrMetallicRoughness":{"metallicFactor":0,"roughnessFactor":1,"baseColorTexture":{"index":3}},"alphaMode":"MASK","alphaCutoff":0.05,"doubleSided":true},{"pbrMetallicRoughness":{"metallicFactor":0,"roughnessFactor":1,"baseColorTexture":{"index":4}},"alphaMode":"MASK","alphaCutoff":0.05,"doubleSided":true},{"pbrMetallicRoughness":{"metallicFactor":0,"roughnessFactor":1,"baseColorTexture":{"index":5}},"alphaMode":"MASK","alphaCutoff":0.05,"doubleSided":true}],"textures":[{"sampler":0,"source":0,"name":"texture"},{"sampler":1,"source":1,"name":"texture"},{"sampler":2,"source":2,"name":"texture"},{"sampler":3,"source":3,"name":"texture"},{"sampler":4,"source":4,"name":"texture"},{"sampler":5,"source":5,"name":"texture"}],"samplers":[{"magFilter":9728,"minFilter":9728,"wrapS":33071,"wrapT":33071},{"magFilter":9728,"minFilter":9728,"wrapS":33071,"wrapT":33071},{"magFilter":9728,"minFilter":9728,"wrapS":33071,"wrapT":33071},{"magFilter":9728,"minFilter":9728,"wrapS":33071,"wrapT":33071},{"magFilter":9728,"minFilter":9728,"wrapS":33071,"wrapT":33071},{"magFilter":9728,"minFilter":9728,"wrapS":33071,"wrapT":33071}],"images":[{"mimeType":"image/png","uri":"data:image/png;base64,"},{"mimeType":"image/png","uri":"data:image/png;base64,"},{"mimeType":"image/png","uri":"data:image/png;base64,"},{"mimeType":"image/png","uri":"data:image/png;base64,"},{"mimeType":"image/png","uri":"data:image/png;base64,"},{"mimeType":"image/png","uri":"data:image/png;base64,"}],"meshes":[{"primitives":[{"mode":4,"attributes":{"POSITION":0,"NORMAL":1,"TEXCOORD_0":2},"indices":3,"material":0}]},{"primitives":[{"mode":4,"attributes":{"POSITION":4,"NORMAL":5,"TEXCOORD_0":6},"indices":7,"material":1}]},{"primitives":[{"mode":4,"attributes":{"POSITION":8,"NORMAL":9,"TEXCOORD_0":10},"indices":11,"material":2}]},{"primitives":[{"mode":4,"attributes":{"POSITION":12,"NORMAL":13,"TEXCOORD_0":14},"indices":15,"material":3}]},{"primitives":[{"mode":4,"attributes":{"POSITION":16,"NORMAL":17,"TEXCOORD_0":18},"indices":19,"material":4}]},{"primitives":[{"mode":4,"attributes":{"POSITION":20,"NORMAL":21,"TEXCOORD_0":22},"indices":23,"material":5}]},{"primitives":[{"mode":4,"attributes":{"POSITION":24,"NORMAL":25,"TEXCOORD_0":26},"indices":27,"material":5}]},{"primitives":[{"mode":4,"attributes":{"POSITION":28,"NORMAL":29,"TEXCOORD_0":30},"indices":31,"material":5}]},{"primitives":[{"mode":4,"attributes":{"POSITION":32,"NORMAL":33,"TEXCOORD_0":34},"indices":35,"material":5}]},{"primitives":[{"mode":4,"attributes":{"POSITION":36,"NORMAL":37,"TEXCOORD_0":38},"indices":39,"material":5}]}],"animations":[{"name":"spin","samplers":[{"input":40,"output":41,"interpolation":"LINEAR"}],"channels":[{"sampler":0,"target":{"node":10,"path":"rotation"}}]}]}