{"asset":{"version":"2.0","generator":"Blockbench 5.1.0 glTF exporter"},"scenes":[{"nodes":[0,1,2,3,4,5,6,7,8,9,10,11],"name":"blockbench_export"}],"scene":0,"nodes":[{"rotation":[0.2135074810831314,-0.028204101555791956,-0.1926239672547272,0.957347946890793],"translation":[0,0.12812500000000016,-0.03125],"name":"plane","mesh":0},{"rotation":[-0.6615945637208813,0.03126410220135567,-0.6284882689059204,0.4078206530034489],"translation":[0,0.09687500000000004,0.03125],"name":"plane","mesh":1},{"rotation":[-0.5893537603397625,0.5002375061615195,0.6342016520979337,-0.014589279589377224],"translation":[0,0.09687500000000004,0],"name":"plane","mesh":2},{"rotation":[0.05856405115201881,0.9771511529493968,-0.20095355815473165,-0.03692619215788574],"translation":[0,0.09687500000000004,0.03125],"name":"plane","mesh":3},{"rotation":[-0.13403262261662793,0.8076166722162149,0.5709210595842878,-0.06196539805463607],"translation":[0,0.09687500000000016,0],"name":"plane","mesh":4},{"rotation":[-0.15776516278380157,-0.1528086513019083,-0.7682329218034003,0.601313435203724],"translation":[0,0.06562500000000004,0],"name":"plane","mesh":5},{"rotation":[0.013352702437384775,-0.8982404772636315,0.4139560248669446,0.1470583551491707],"translation":[0,0.08437500000000014,0.028125],"name":"plane","mesh":6},{"rotation":[-0.7122465598561197,0.3678737740841823,0.5977299591989665,0.009623938392595455],"translation":[0,0.10937500000000003,0.028125000000000025],"name":"plane","mesh":7},{"rotation":[0.28204219342256914,-0.7993534949196307,0.11611756221268285,0.5176899680648077],"translation":[0,0.08437500000000003,0.028125],"name":"plane","mesh":8},{"rotation":[0.6839803275493859,0.5286547557523555,0.341319641185847,0.3690473726862405],"translation":[0,0.08437500000000003,-0.003124999999999975],"name":"plane","mesh":9},{"rotation":[-0.9735049466805218,-0.11326554704089624,0.19691937710907553,0.026111176937370053],"translation":[0,0.11562500000000016,-0.0031249999999999993],"name":"plane","mesh":10},{"rotation":[-0.5996352919152109,-0.7417135519562454,-0.25178028695621013,0.1640280787989007],"translation":[0,0.05312500000000003,0.028125],"name":"plane","mesh":11}],"bufferViews":[{"buffer":0,"byteOffset":0,"byteLength":288,"target":34962,"byteStride":12},{"buffer":0,"byteOffset":288,"byteLength":288,"target":34962,"byteStride":12},{"buffer":0,"byteOffset":576,"byteLength":192,"target":34962,"byteStride":8},{"buffer":0,"byteOffset":768,"byteLength":72,"target":34963},{"buffer":0,"byteOffset":840,"byteLength":288,"target":34962,"byteStride":12},{"buffer":0,"byteOffset":1128,"byteLength":288,"target":34962,"byteStride":12},{"buffer":0,"byteOffset":1416,"byteLength":192,"target":34962,"byteStride":8},{"buffer":0,"byteOffset":1608,"byteLength":72,"target":34963},{"buffer":0,"byteOffset":1680,"byteLength":288,"target":34962,"byteStride":12},{"buffer":0,"byteOffset":1968,"byteLength":288,"target":34962,"byteStride":12},{"buffer":0,"byteOffset":2256,"byteLength":192,"target":34962,"byteStride":8},{"buffer":0,"byteOffset":2448,"byteLength":72,"target":34963},{"buffer":0,"byteOffset":2520,"byteLength":288,"target":34962,"byteStride":12},{"buffer":0,"byteOffset":2808,"byteLength":288,"target":34962,"byteStride":12},{"buffer":0,"byteOffset":3096,"byteLength":192,"target":34962,"byteStride":8},{"buffer":0,"byteOffset":3288,"byteLength":72,"target":34963},{"buffer":0,"byteOffset":3360,"byteLength":288,"target":34962,"byteStride":12},{"buffer":0,"byteOffset":3648,"byteLength":288,"target":34962,"byteStride":12},{"buffer":0,"byteOffset":3936,"byteLength":192,"target":34962,"byteStride":8},{"buffer":0,"byteOffset":4128,"byteLength":72,"target":34963},{"buffer":0,"byteOffset":4200,"byteLength":288,"target":34962,"byteStride":12},{"buffer":0,"byteOffset":4488,"byteLength":288,"target":34962,"byteStride":12},{"buffer":0,"byteOffset":4776,"byteLength":192,"target":34962,"byteStride":8},{"buffer":0,"byteOffset":4968,"byteLength":72,"target":34963},{"buffer":0,"byteOffset":5040,"byteLength":288,"target":34962,"byteStride":12},{"buffer":0,"byteOffset":5328,"byteLength":288,"target":34962,"byteStride":12},{"buffer":0,"byteOffset":5616,"byteLength":192,"target":34962,"byteStride":8},{"buffer":0,"byteOffset":5808,"byteLength":72,"target":34963},{"buffer":0,"byteOffset":5880,"byteLength":288,"target":34962,"byteStride":12},{"buffer":0,"byteOffset":6168,"byteLength":288,"target":34962,"byteStride":12},{"buffer":0,"byteOffset":6456,"byteLength":192,"target":34962,"byteStride":8},{"buffer":0,"byteOffset":6648,"byteLength":72,"target":34963},{"buffer":0,"byteOffset":6720,"byteLength":288,"target":34962,"byteStride":12},{"buffer":0,"byteOffset":7008,"byteLength":288,"target":34962,"byteStride":12},{"buffer":0,"byteOffset":7296,"byteLength":192,"target":34962,"byteStride":8},{"buffer":0,"byteOffset":7488,"byteLength":72,"target":34963},{"buffer":0,"byteOffset":7560,"byteLength":288,"target":34962,"byteStride":12},{"buffer":0,"byteOffset":7848,"byteLength":288,"target":34962,"byteStride":12},{"buffer":0,"byteOffset":8136,"byteLength":192,"target":34962,"byteStride":8},{"buffer":0,"byteOffset":8328,"byteLength":72,"target":34963},{"buffer":0,"byteOffset":8400,"byteLength":288,"target":34962,"byteStride":12},{"buffer":0,"byteOffset":8688,"byteLength":288,"target":34962,"byteStride":12},{"buffer":0,"byteOffset":8976,"byteLength":192,"target":34962,"byteStride":8},{"buffer":0,"byteOffset":9168,"byteLength":72,"target":34963},{"buffer":0,"byteOffset":9240,"byteLength":288,"target":34962,"byteStride":12},{"buffer":0,"byteOffset":9528,"byteLength":288,"target":34962,"byteStride":12},{"buffer":0,"byteOffset":9816,"byteLength":192,"target":34962,"byteStride":8},{"buffer":0,"byteOffset":10008,"byteLength":72,"target":34963}],"buffers":[{"byteLength":10080,"uri":"data:application/octet-stream;base64,"}],"accessors":[{"bufferView":0,"componentType":5126,"count":24,"max":[0.046875,0.10312499850988388,0.05000000074505806],"min":[-0.046875,0.02187499962747097,-0.05000000074505806],"type":"VEC3"},{"bufferView":1,"componentType":5126,"count":24,"max":[1,1,0],"min":[0,0,-1],"type":"VEC3"},{"bufferView":2,"componentType":5126,"count":24,"max":[0.125,0.28125],"min":[0,0],"type":"VEC2"},{"bufferView":3,"componentType":5123,"count":36,"max":[23],"min":[0],"type":"SCALAR"},{"bufferView":4,"componentType":5126,"count":24,"max":[0.046875,0.10312499850988388,0.05000000074505806],"min":[-0.046875,0.02187499962747097,-0.05000000074505806],"type":"VEC3"},{"bufferView":5,"componentType":5126,"count":24,"max":[1,1,0],"min":[0,0,-1],"type":"VEC3"},{"bufferView":6,"componentType":5126,"count":24,"max":[0.28125,0.28125],"min":[0,0],"type":"VEC2"},{"bufferView":7,"componentType":5123,"count":36,"max":[23],"min":[0],"type":"SCALAR"},{"bufferView":8,"componentType":5126,"count":24,"max":[0.046875,0.10312499850988388,0.05000000074505806],"min":[-0.046875,0.02187499962747097,-0.05000000074505806],"type":"VEC3"},{"bufferView":9,"componentType":5126,"count":24,"max":[1,1,0],"min":[0,0,-1],"type":"VEC3"},{"bufferView":10,"componentType":5126,"count":24,"max":[0.4375,0.4375],"min":[0,0],"type":"VEC2"},{"bufferView":11,"componentType":5123,"count":36,"max":[23],"min":[0],"type":"SCALAR"},{"bufferView":12,"componentType":5126,"count":24,"max":[0.046875,0.10312499850988388,0.05000000074505806],"min":[-0.046875,0.02187499962747097,-0.05000000074505806],"type":"VEC3"},{"bufferView":13,"componentType":5126,"count":24,"max":[1,1,0],"min":[0,0,-1],"type":"VEC3"},{"bufferView":14,"componentType":5126,"count":24,"max":[0.4375,0.4375],"min":[0,0],"type":"VEC2"},{"bufferView":15,"componentType":5123,"count":36,"max":[23],"min":[0],"type":"SCALAR"},{"bufferView":16,"componentType":5126,"count":24,"max":[0.046875,0.10312499850988388,0.05000000074505806],"min":[-0.046875,0.02187499962747097,-0.05000000074505806],"type":"VEC3"},{"bufferView":17,"componentType":5126,"count":24,"max":[1,1,0],"min":[0,0,-1],"type":"VEC3"},{"bufferView":18,"componentType":5126,"count":24,"max":[0.4375,0.59375],"min":[0,0],"type":"VEC2"},{"bufferView":19,"componentType":5123,"count":36,"max":[23],"min":[0],"type":"SCALAR"},{"bufferView":20,"componentType":5126,"count":24,"max":[0.046875,0.10312499850988388,0.05000000074505806],"min":[-0.046875,0.02187499962747097,-0.05000000074505806],"type":"VEC3"},{"bufferView":21,"componentType":5126,"count":24,"max":[1,1,0],"min":[0,0,-1],"type":"VEC3"},{"bufferView":22,"componentType":5126,"count":24,"max":[0.59375,0.59375],"min":[0,0],"type":"VEC2"},{"bufferView":23,"componentType":5123,"count":36,"max":[23],"min":[0],"type":"SCALAR"},{"bufferView":24,"componentType":5126,"count":24,"max":[0.046875,0.10312499850988388,0.03437500074505806],"min":[-0.046875,0.02187499962747097,-0.03437500074505806],"type":"VEC3"},{"bufferView":25,"componentType":5126,"count":24,"max":[1,1,0],"min":[0,0,-1],"type":"VEC3"},{"bufferView":26,"componentType":5126,"count":24,"max":[0.4375,0.59375],"min":[0,0],"type":"VEC2"},{"bufferView":27,"componentType":5123,"count":36,"max":[23],"min":[0],"type":"SCALAR"},{"bufferView":28,"componentType":5126,"count":24,"max":[0.046875,0.10312499850988388,0.03437500074505806],"min":[-0.046875,0.02187499962747097,-0.03437500074505806],"type":"VEC3"},{"bufferView":29,"componentType":5126,"count":24,"max":[1,1,0],"min":[0,0,-1],"type":"VEC3"},{"bufferView":30,"componentType":5126,"count":24,"max":[0.4375,0.4375],"min":[0,0],"type":"VEC2"},{"bufferView":31,"componentType":5123,"count":36,"max":[23],"min":[0],"type":"SCALAR"},{"bufferView":32,"componentType":5126,"count":24,"max":[0.046875,0.10312499850988388,0.03437500074505806],"min":[-0.046875,0.02187499962747097,-0.03437500074505806],"type":"VEC3"},{"bufferView":33,"componentType":5126,"count":24,"max":[1,1,0],"min":[0,0,-1],"type":"VEC3"},{"bufferView":34,"componentType":5126,"count":24,"max":[0.4375,0.4375],"min":[0,0],"type":"VEC2"},{"bufferView":35,"componentType":5123,"count":36,"max":[23],"min":[0],"type":"SCALAR"},{"bufferView":36,"componentType":5126,"count":24,"max":[0.046875,0.10312499850988388,0.03437500074505806],"min":[-0.046875,0.02187499962747097,-0.03437500074505806],"type":"VEC3"},{"bufferView":37,"componentType":5126,"count":24,"max":[1,1,0],"min":[0,0,-1],"type":"VEC3"},{"bufferView":38,"componentType":5126,"count":24,"max":[0.28125,0.28125],"min":[0,0],"type":"VEC2"},{"bufferView":39,"componentType":5123,"count":36,"max":[23],"min":[0],"type":"SCALAR"},{"bufferView":40,"componentType":5126,"count":24,"max":[0.046875,0.10312499850988388,0.03437500074505806],"min":[-0.046875,0.02187499962747097,-0.03437500074505806],"type":"VEC3"},{"bufferView":41,"componentType":5126,"count":24,"max":[1,1,0],"min":[0,0,-1],"type":"VEC3"},{"bufferView":42,"componentType":5126,"count":24,"max":[0.125,0.28125],"min":[0,0],"type":"VEC2"},{"bufferView":43,"componentType":5123,"count":36,"max":[23],"min":[0],"type":"SCALAR"},{"bufferView":44,"componentType":5126,"count":24,"max":[0.046875,0.10312499850988388,0.03437500074505806],"min":[-0.046875,0.02187499962747097,-0.03437500074505806],"type":"VEC3"},{"bufferView":45,"componentType":5126,"count":24,"max":[1,1,0],"min":[0,0,-1],"type":"VEC3"},{"bufferView":46,"componentType":5126,"count":24,"max":[0.59375,0.59375],"min":[0,0],"type":"VEC2"},{"bufferView":47,"componentType":5123,"count":36,"max":[23],"min":[0],"type":"SCALAR"}],"materials":[{"pbrMetallicRoughness":{"metallicFactor":0,"roughnessFactor":1,"baseColorTexture":{"index":0}},"alphaMode":"MASK","alphaCutoff":0.05,"doubleSided":true}],"textures":[{"sampler":0,"source":0,"name":"texture"}],"samplers":[{"magFilter":9728,"minFilter":9728,"wrapS":33071,"wrapT":33071}],"images":[{"mimeType":"image/png","uri":"data:image/png;base64,"}],"meshes":[{"primitives":[{"mode":4,"attributes":{"POSITION":0,"NORMAL":1,"TEXCOORD_0":2},"indices":3,"material":0}]},{"primitives":[{"mode":4,"attributes":{"POSITION":4,"NORMAL":5,"TEXCOORD_0":6},"indices":7,"material":0}]},{"primitives":[{"mode":4,"attributes":{"POSITION":8,"NORMAL":9,"TEXCOORD_0":10},"indices":11,"material":0}]},{"primitives":[{"mode":4,"attributes":{"POSITION":12,"NORMAL":13,"TEXCOORD_0":14},"indices":15,"material":0}]},{"primitives":[{"mode":4,"attributes":{"POSITION":16,"NORMAL":17,"TEXCOORD_0":18},"indices":19,"material":0}]},{"primitives":[{"mode":4,"attributes":{"POSITION":20,"NORMAL":21,"TEXCOORD_0":22},"indices":23,"material":0}]},{"primitives":[{"mode":4,"attributes":{"POSITION":24,"NORMAL":25,"TEXCOORD_0":26},"indices":27,"material":0}]},{"primitives":[{"mode":4,"attributes":{"POSITION":28,"NORMAL":29,"TEXCOORD_0":30},"indices":31,"material":0}]},{"primitives":[{"mode":4,"attributes":{"POSITION":32,"NORMAL":33,"TEXCOORD_0":34},"indices":35,"material":0}]},{"primitives":[{"mode":4,"attributes":{"POSITION":36,"NORMAL":37,"TEXCOORD_0":38},"indices":39,"material":0}]},{"primitives":[{"mode":4,"attributes":{"POSITION":40,"NORMAL":41,"TEXCOORD_0":42},"indices":43,"material":0}]},{"primitives":[{"mode":4,"attributes":{"POSITION":44,"NORMAL":45,"TEXCOORD_0":46},"indices":47,"material":0}]}]}