{"asset":{"version":"2.0","generator":"Blockbench 5.1.1 glTF exporter"},"scenes":[{"nodes":[0,1,2,3,4,5],"name":"blockbench_export"}],"scene":0,"nodes":[{"translation":[0.1875,0,0],"name":"mesh","mesh":0},{"translation":[0,-0.10937500000000001,0],"name":"mesh","mesh":1},{"translation":[0,0.10937500000000004,-0.15625],"name":"mesh","mesh":2},{"rotation":[-0.17364817766693033,0,0,0.984807753012208],"translation":[0,0.10312500000000004,0.1874999999999999],"name":"mesh","mesh":3},{"translation":[0,0.046875,0],"name":"mesh","mesh":4},{"translation":[-0.1875,0,0],"name":"mesh","mesh":5}],"bufferViews":[{"buffer":0,"byteOffset":0,"byteLength":288,"target":34962,"byteStride":12},{"buffer":0,"byteOffset":288,"byteLength":288,"target":34962,"byteStride":12},{"buffer":0,"byteOffset":576,"byteLength":192,"target":34962,"byteStride":8},{"buffer":0,"byteOffset":768,"byteLength":72,"target":34963},{"buffer":0,"byteOffset":840,"byteLength":336,"target":34962,"byteStride":12},{"buffer":0,"byteOffset":1176,"byteLength":336,"target":34962,"byteStride":12},{"buffer":0,"byteOffset":1512,"byteLength":224,"target":34962,"byteStride":8},{"buffer":0,"byteOffset":1736,"byteLength":84,"target":34963},{"buffer":0,"byteOffset":1820,"byteLength":288,"target":34962,"byteStride":12},{"buffer":0,"byteOffset":2108,"byteLength":288,"target":34962,"byteStride":12},{"buffer":0,"byteOffset":2396,"byteLength":192,"target":34962,"byteStride":8},{"buffer":0,"byteOffset":2588,"byteLength":72,"target":34963},{"buffer":0,"byteOffset":2660,"byteLength":288,"target":34962,"byteStride":12},{"buffer":0,"byteOffset":2948,"byteLength":288,"target":34962,"byteStride":12},{"buffer":0,"byteOffset":3236,"byteLength":192,"target":34962,"byteStride":8},{"buffer":0,"byteOffset":3428,"byteLength":72,"target":34963},{"buffer":0,"byteOffset":3500,"byteLength":144,"target":34962,"byteStride":12},{"buffer":0,"byteOffset":3644,"byteLength":144,"target":34962,"byteStride":12},{"buffer":0,"byteOffset":3788,"byteLength":96,"target":34962,"byteStride":8},{"buffer":0,"byteOffset":3884,"byteLength":36,"target":34963},{"buffer":0,"byteOffset":3920,"byteLength":288,"target":34962,"byteStride":12},{"buffer":0,"byteOffset":4208,"byteLength":288,"target":34962,"byteStride":12},{"buffer":0,"byteOffset":4496,"byteLength":192,"target":34962,"byteStride":8},{"buffer":0,"byteOffset":4688,"byteLength":72,"target":34963}],"buffers":[{"byteLength":4760,"uri":"data:application/octet-stream;base64,"}],"accessors":[{"bufferView":0,"componentType":5126,"count":24,"max":[0.03125,0.25,0.1875],"min":[-0.03125,0,-0.1875],"type":"VEC3"},{"bufferView":1,"componentType":5126,"count":24,"max":[1,1,1],"min":[-1,-1,-1],"type":"VEC3"},{"bufferView":2,"componentType":5126,"count":24,"max":[0.5625,0.671875],"min":[0.171875,0.140625],"type":"VEC2"},{"bufferView":3,"componentType":5123,"count":36,"max":[23],"min":[0],"type":"SCALAR"},{"bufferView":4,"componentType":5126,"count":28,"max":[0.15625,0.203125,0.1875],"min":[-0.15625,0.109375,-0.1875],"type":"VEC3"},{"bufferView":5,"componentType":5126,"count":28,"max":[1,1,1],"min":[-1,-1,-1],"type":"VEC3"},{"bufferView":6,"componentType":5126,"count":28,"max":[0.734375,0.53125],"min":[0,0],"type":"VEC2"},{"bufferView":7,"componentType":5123,"count":42,"max":[27],"min":[0],"type":"SCALAR"},{"bufferView":8,"componentType":5126,"count":24,"max":[0.15625,0.140625,0.03125],"min":[-0.15625,0.109375,-0.03125],"type":"VEC3"},{"bufferView":9,"componentType":5126,"count":24,"max":[1,1,1],"min":[-1,-1,-1],"type":"VEC3"},{"bufferView":10,"componentType":5126,"count":24,"max":[0.703125,0.5625],"min":[0.5,0],"type":"VEC2"},{"bufferView":11,"componentType":5123,"count":36,"max":[23],"min":[0],"type":"SCALAR"},{"bufferView":12,"componentType":5126,"count":24,"max":[0.15625,0.20109492540359497,0.12204517424106598],"min":[-0.15625,0.12631313502788544,-0.06061539426445961],"type":"VEC3"},{"bufferView":13,"componentType":5126,"count":24,"max":[1,0.9560309052467346,1],"min":[-1,-0.9560309052467346,-1],"type":"VEC3"},{"bufferView":14,"componentType":5126,"count":24,"max":[0.734375,0.6764043569564819],"min":[0,0.140625],"type":"VEC2"},{"bufferView":15,"componentType":5123,"count":36,"max":[23],"min":[0],"type":"SCALAR"},{"bufferView":16,"componentType":5126,"count":12,"max":[0.15625,0.171875,0.1875],"min":[-0.15625,0.046875,-0.1875],"type":"VEC3"},{"bufferView":17,"componentType":5126,"count":12,"max":[0,1,1],"min":[0,0,-1],"type":"VEC3"},{"bufferView":18,"componentType":5126,"count":12,"max":[0.15625,0.546875],"min":[0,0.203125],"type":"VEC2"},{"bufferView":19,"componentType":5123,"count":18,"max":[11],"min":[0],"type":"SCALAR"},{"bufferView":20,"componentType":5126,"count":24,"max":[0.03125,0.25,0.1875],"min":[-0.03125,0,-0.1875],"type":"VEC3"},{"bufferView":21,"componentType":5126,"count":24,"max":[1,1,1],"min":[-1,-1,-1],"type":"VEC3"},{"bufferView":22,"componentType":5126,"count":24,"max":[0.578125,0.671875],"min":[0.171875,0],"type":"VEC2"},{"bufferView":23,"componentType":5123,"count":36,"max":[23],"min":[0],"type":"SCALAR"}],"materials":[{"pbrMetallicRoughness":{"metallicFactor":0,"roughnessFactor":1,"baseColorTexture":{"index":0}},"alphaMode":"MASK","alphaCutoff":0.05,"doubleSided":true}],"textures":[{"sampler":0,"source":0,"name":"texture"}],"samplers":[{"magFilter":9728,"minFilter":9728,"wrapS":33071,"wrapT":33071}],"images":[{"mimeType":"image/png","uri":"data:image/png;base64,"}],"meshes":[{"primitives":[{"mode":4,"attributes":{"POSITION":0,"NORMAL":1,"TEXCOORD_0":2},"indices":3,"material":0}]},{"primitives":[{"mode":4,"attributes":{"POSITION":4,"NORMAL":5,"TEXCOORD_0":6},"indices":7,"material":0}]},{"primitives":[{"mode":4,"attributes":{"POSITION":8,"NORMAL":9,"TEXCOORD_0":10},"indices":11,"material":0}]},{"primitives":[{"mode":4,"attributes":{"POSITION":12,"NORMAL":13,"TEXCOORD_0":14},"indices":15,"material":0}]},{"primitives":[{"mode":4,"attributes":{"POSITION":16,"NORMAL":17,"TEXCOORD_0":18},"indices":19,"material":0}]},{"primitives":[{"mode":4,"attributes":{"POSITION":20,"NORMAL":21,"TEXCOORD_0":22},"indices":23,"material":0}]}]}