{"asset":{"version":"2.0","generator":"Blockbench 5.0.7 glTF exporter"},"scenes":[{"nodes":[0,1,2,3,4,5],"name":"blockbench_export"}],"scene":0,"nodes":[{"translation":[-0.21875,0,-0.1875],"name":"mesh","mesh":0},{"translation":[-0.21875,0,0.1875],"name":"mesh","mesh":1},{"translation":[0,0.21875,0],"name":"beveled_cuboid","mesh":2},{"rotation":[0,0,-0.3214394653031616,0.9469301294951057],"translation":[-0.22499999999999998,0.1875000000000001,0],"name":"mesh","mesh":3},{"rotation":[0,0,-0.17364817766693033,0.984807753012208],"translation":[0.028125000000000015,0.05312500000000005,0],"name":"mesh","mesh":4},{"rotation":[0,0,-0.3420201433256687,0.9396926207859084],"translation":[0.14374999999999988,0.003125000000000028,0],"name":"mesh","mesh":5}],"bufferViews":[{"buffer":0,"byteOffset":0,"byteLength":288,"target":34962,"byteStride":12},{"buffer":0,"byteOffset":288,"byteLength":288,"target":34962,"byteStride":12},{"buffer":0,"byteOffset":576,"byteLength":192,"target":34962,"byteStride":8},{"buffer":0,"byteOffset":768,"byteLength":72,"target":34963},{"buffer":0,"byteOffset":840,"byteLength":288,"target":34962,"byteStride":12},{"buffer":0,"byteOffset":1128,"byteLength":288,"target":34962,"byteStride":12},{"buffer":0,"byteOffset":1416,"byteLength":192,"target":34962,"byteStride":8},{"buffer":0,"byteOffset":1608,"byteLength":72,"target":34963},{"buffer":0,"byteOffset":1680,"byteLength":1152,"target":34962,"byteStride":12},{"buffer":0,"byteOffset":2832,"byteLength":1152,"target":34962,"byteStride":12},{"buffer":0,"byteOffset":3984,"byteLength":768,"target":34962,"byteStride":8},{"buffer":0,"byteOffset":4752,"byteLength":264,"target":34963},{"buffer":0,"byteOffset":5016,"byteLength":48,"target":34962,"byteStride":12},{"buffer":0,"byteOffset":5064,"byteLength":48,"target":34962,"byteStride":12},{"buffer":0,"byteOffset":5112,"byteLength":32,"target":34962,"byteStride":8},{"buffer":0,"byteOffset":5144,"byteLength":12,"target":34963},{"buffer":0,"byteOffset":5156,"byteLength":48,"target":34962,"byteStride":12},{"buffer":0,"byteOffset":5204,"byteLength":48,"target":34962,"byteStride":12},{"buffer":0,"byteOffset":5252,"byteLength":32,"target":34962,"byteStride":8},{"buffer":0,"byteOffset":5284,"byteLength":12,"target":34963},{"buffer":0,"byteOffset":5296,"byteLength":144,"target":34962,"byteStride":12},{"buffer":0,"byteOffset":5440,"byteLength":144,"target":34962,"byteStride":12},{"buffer":0,"byteOffset":5584,"byteLength":96,"target":34962,"byteStride":8},{"buffer":0,"byteOffset":5680,"byteLength":36,"target":34963}],"buffers":[{"byteLength":5716,"uri":"data:application/octet-stream;base64,"}],"accessors":[{"bufferView":0,"componentType":5126,"count":24,"max":[0.015625,0.328125,0.015625],"min":[-0.015625,0,-0.015625],"type":"VEC3"},{"bufferView":1,"componentType":5126,"count":24,"max":[1,1,1],"min":[-1,-1,-1],"type":"VEC3"},{"bufferView":2,"componentType":5126,"count":24,"max":[0.5625,0.6875],"min":[0,0],"type":"VEC2"},{"bufferView":3,"componentType":5123,"count":36,"max":[23],"min":[0],"type":"SCALAR"},{"bufferView":4,"componentType":5126,"count":24,"max":[0.015625,0.328125,0.015625],"min":[-0.015625,0,-0.015625],"type":"VEC3"},{"bufferView":5,"componentType":5126,"count":24,"max":[1,1,1],"min":[-1,-1,-1],"type":"VEC3"},{"bufferView":6,"componentType":5126,"count":24,"max":[0.5625,0.6875],"min":[0,0],"type":"VEC2"},{"bufferView":7,"componentType":5123,"count":36,"max":[23],"min":[0],"type":"SCALAR"},{"bufferView":8,"componentType":5126,"count":96,"max":[0.25,0.140625,0.25],"min":[-0.25,-0.21875,-0.25],"type":"VEC3"},{"bufferView":9,"componentType":5126,"count":96,"max":[1,0.936329185962677,1],"min":[-1,-1,-1],"type":"VEC3"},{"bufferView":10,"componentType":5126,"count":96,"max":[0.6917062401771545,0.609375],"min":[0,0],"type":"VEC2"},{"bufferView":11,"componentType":5123,"count":132,"max":[95],"min":[0],"type":"SCALAR"},{"bufferView":12,"componentType":5126,"count":4,"max":[0.125,0.12812499701976776,0.1875],"min":[-0.125,0.12812499701976776,-0.1875],"type":"VEC3"},{"bufferView":13,"componentType":5126,"count":4,"max":[0,1,0],"min":[0,1,0],"type":"VEC3"},{"bufferView":14,"componentType":5126,"count":4,"max":[0.25,0.375],"min":[0,0],"type":"VEC2"},{"bufferView":15,"componentType":5123,"count":6,"max":[3],"min":[0],"type":"SCALAR"},{"bufferView":16,"componentType":5126,"count":4,"max":[0.125,0.12812499701976776,0.1875],"min":[-0.125,0.12812499701976776,-0.1875],"type":"VEC3"},{"bufferView":17,"componentType":5126,"count":4,"max":[0,1,0],"min":[0,1,0],"type":"VEC3"},{"bufferView":18,"componentType":5126,"count":4,"max":[0.25,0.375],"min":[0,0],"type":"VEC2"},{"bufferView":19,"componentType":5123,"count":6,"max":[3],"min":[0],"type":"SCALAR"},{"bufferView":20,"componentType":5126,"count":12,"max":[0.046875,0.12812499701976776,0.125],"min":[-0.046875,0.12187500298023224,-0.125],"type":"VEC3"},{"bufferView":21,"componentType":5126,"count":12,"max":[0,1,1],"min":[0,0,-1],"type":"VEC3"},{"bufferView":22,"componentType":5126,"count":12,"max":[0.53125,0.5],"min":[0,0],"type":"VEC2"},{"bufferView":23,"componentType":5123,"count":18,"max":[11],"min":[0],"type":"SCALAR"}],"materials":[{"pbrMetallicRoughness":{"metallicFactor":0,"roughnessFactor":1,"baseColorTexture":{"index":0}},"alphaMode":"MASK","alphaCutoff":0.05,"doubleSided":true},{"pbrMetallicRoughness":{"metallicFactor":0,"roughnessFactor":1,"baseColorTexture":{"index":1}},"alphaMode":"MASK","alphaCutoff":0.05,"doubleSided":true},{"pbrMetallicRoughness":{"metallicFactor":0,"roughnessFactor":1,"baseColorTexture":{"index":2}},"alphaMode":"MASK","alphaCutoff":0.05,"doubleSided":true},{"pbrMetallicRoughness":{"metallicFactor":0,"roughnessFactor":1,"baseColorTexture":{"index":3}},"alphaMode":"MASK","alphaCutoff":0.05,"doubleSided":true}],"textures":[{"sampler":0,"source":0,"name":"texture"},{"sampler":1,"source":1,"name":"texture"},{"sampler":2,"source":2,"name":"texture"},{"sampler":3,"source":3,"name":"texture"}],"samplers":[{"magFilter":9728,"minFilter":9728,"wrapS":33071,"wrapT":33071},{"magFilter":9728,"minFilter":9728,"wrapS":33071,"wrapT":33071},{"magFilter":9728,"minFilter":9728,"wrapS":33071,"wrapT":33071},{"magFilter":9728,"minFilter":9728,"wrapS":33071,"wrapT":33071}],"images":[{"mimeType":"image/png","uri":"data:image/png;base64,"},{"mimeType":"image/png","uri":"data:image/png;base64,"},{"mimeType":"image/png","uri":"data:image/png;base64,"},{"mimeType":"image/png","uri":"data:image/png;base64,"}],"meshes":[{"primitives":[{"mode":4,"attributes":{"POSITION":0,"NORMAL":1,"TEXCOORD_0":2},"indices":3,"material":0}]},{"primitives":[{"mode":4,"attributes":{"POSITION":4,"NORMAL":5,"TEXCOORD_0":6},"indices":7,"material":1}]},{"primitives":[{"mode":4,"attributes":{"POSITION":8,"NORMAL":9,"TEXCOORD_0":10},"indices":11,"material":2}]},{"primitives":[{"mode":4,"attributes":{"POSITION":12,"NORMAL":13,"TEXCOORD_0":14},"indices":15,"material":3}]},{"primitives":[{"mode":4,"attributes":{"POSITION":16,"NORMAL":17,"TEXCOORD_0":18},"indices":19,"material":3}]},{"primitives":[{"mode":4,"attributes":{"POSITION":20,"NORMAL":21,"TEXCOORD_0":22},"indices":23,"material":3}]}]}