{"asset":{"version":"2.0","generator":"Blockbench 5.1.0 glTF exporter"},"scenes":[{"nodes":[0,1,2,3,4,5],"name":"blockbench_export"}],"scene":0,"nodes":[{"translation":[0,-0.09375,0],"name":"mesh","mesh":0},{"rotation":[0,0,-0.7071067811865475,0.7071067811865476],"translation":[0.09375,0.25,0],"name":"mesh","mesh":1},{"rotation":[0,0,-0.7071067811865475,0.7071067811865476],"translation":[-0.34375,0.25,0],"name":"mesh","mesh":2},{"rotation":[0.5000000000000008,-0.4999999999999993,-0.5000000000000007,0.4999999999999994],"translation":[0,0.25,-0.34375],"name":"mesh","mesh":3},{"translation":[0,0.34375,0],"name":"mesh","mesh":4},{"translation":[0,0.06874999999999998,0.03125],"name":"plane","mesh":5}],"bufferViews":[{"buffer":0,"byteOffset":0,"byteLength":288,"target":34962,"byteStride":12},{"buffer":0,"byteOffset":288,"byteLength":288,"target":34962,"byteStride":12},{"buffer":0,"byteOffset":576,"byteLength":192,"target":34962,"byteStride":8},{"buffer":0,"byteOffset":768,"byteLength":72,"target":34963},{"buffer":0,"byteOffset":840,"byteLength":192,"target":34962,"byteStride":12},{"buffer":0,"byteOffset":1032,"byteLength":192,"target":34962,"byteStride":12},{"buffer":0,"byteOffset":1224,"byteLength":128,"target":34962,"byteStride":8},{"buffer":0,"byteOffset":1352,"byteLength":48,"target":34963},{"buffer":0,"byteOffset":1400,"byteLength":192,"target":34962,"byteStride":12},{"buffer":0,"byteOffset":1592,"byteLength":192,"target":34962,"byteStride":12},{"buffer":0,"byteOffset":1784,"byteLength":128,"target":34962,"byteStride":8},{"buffer":0,"byteOffset":1912,"byteLength":48,"target":34963},{"buffer":0,"byteOffset":1960,"byteLength":96,"target":34962,"byteStride":12},{"buffer":0,"byteOffset":2056,"byteLength":96,"target":34962,"byteStride":12},{"buffer":0,"byteOffset":2152,"byteLength":64,"target":34962,"byteStride":8},{"buffer":0,"byteOffset":2216,"byteLength":24,"target":34963},{"buffer":0,"byteOffset":2240,"byteLength":288,"target":34962,"byteStride":12},{"buffer":0,"byteOffset":2528,"byteLength":288,"target":34962,"byteStride":12},{"buffer":0,"byteOffset":2816,"byteLength":192,"target":34962,"byteStride":8},{"buffer":0,"byteOffset":3008,"byteLength":72,"target":34963},{"buffer":0,"byteOffset":3080,"byteLength":240,"target":34962,"byteStride":12},{"buffer":0,"byteOffset":3320,"byteLength":240,"target":34962,"byteStride":12},{"buffer":0,"byteOffset":3560,"byteLength":160,"target":34962,"byteStride":8},{"buffer":0,"byteOffset":3720,"byteLength":60,"target":34963}],"buffers":[{"byteLength":3780,"uri":"data:application/octet-stream;base64,"}],"accessors":[{"bufferView":0,"componentType":5126,"count":24,"max":[0.25,0.15625,0.25],"min":[-0.25,0.09375,-0.25],"type":"VEC3"},{"bufferView":1,"componentType":5126,"count":24,"max":[1,1,1],"min":[-1,-1,-1],"type":"VEC3"},{"bufferView":2,"componentType":5126,"count":24,"max":[0.984375,0.765625],"min":[0.265625,0],"type":"VEC2"},{"bufferView":3,"componentType":5123,"count":36,"max":[23],"min":[0],"type":"SCALAR"},{"bufferView":4,"componentType":5126,"count":16,"max":[0.1875,0.140625,0.25],"min":[-0.1875,0.109375,-0.25],"type":"VEC3"},{"bufferView":5,"componentType":5126,"count":16,"max":[0,1,1],"min":[0,-1,-1],"type":"VEC3"},{"bufferView":6,"componentType":5126,"count":16,"max":[0.859375,0.8125],"min":[0,0],"type":"VEC2"},{"bufferView":7,"componentType":5123,"count":24,"max":[15],"min":[0],"type":"SCALAR"},{"bufferView":8,"componentType":5126,"count":16,"max":[0.1875,0.140625,0.25],"min":[-0.1875,0.109375,-0.25],"type":"VEC3"},{"bufferView":9,"componentType":5126,"count":16,"max":[0,1,1],"min":[0,-1,-1],"type":"VEC3"},{"bufferView":10,"componentType":5126,"count":16,"max":[0.796875,0.828125],"min":[0,0.265625],"type":"VEC2"},{"bufferView":11,"componentType":5123,"count":24,"max":[15],"min":[0],"type":"SCALAR"},{"bufferView":12,"componentType":5126,"count":8,"max":[0.1875,0.140625,0.203125],"min":[-0.1875,0.109375,-0.203125],"type":"VEC3"},{"bufferView":13,"componentType":5126,"count":8,"max":[0,1,0],"min":[0,-1,0],"type":"VEC3"},{"bufferView":14,"componentType":5126,"count":8,"max":[0.796875,0.71875],"min":[0.40625,0.53125],"type":"VEC2"},{"bufferView":15,"componentType":5123,"count":12,"max":[7],"min":[0],"type":"SCALAR"},{"bufferView":16,"componentType":5126,"count":24,"max":[0.25,0.15625,0.25],"min":[-0.25,0.09375,-0.25],"type":"VEC3"},{"bufferView":17,"componentType":5126,"count":24,"max":[1,1,1],"min":[-1,-1,-1],"type":"VEC3"},{"bufferView":18,"componentType":5126,"count":24,"max":[0.984375,0.515625],"min":[0,0],"type":"VEC2"},{"bufferView":19,"componentType":5123,"count":36,"max":[23],"min":[0],"type":"SCALAR"},{"bufferView":20,"componentType":5126,"count":20,"max":[0.15625,0.1875,0.21875],"min":[-0.15625,0,-0.21875],"type":"VEC3"},{"bufferView":21,"componentType":5126,"count":20,"max":[0.986393928527832,1,0.9486833214759827],"min":[-0.986393928527832,0.16439898312091827,-0.9486833214759827],"type":"VEC3"},{"bufferView":22,"componentType":5126,"count":20,"max":[0.78125,0.75],"min":[0,0],"type":"VEC2"},{"bufferView":23,"componentType":5123,"count":30,"max":[19],"min":[0],"type":"SCALAR"}],"materials":[{"pbrMetallicRoughness":{"metallicFactor":0,"roughnessFactor":1,"baseColorTexture":{"index":0}},"alphaMode":"MASK","alphaCutoff":0.05,"doubleSided":true},{"pbrMetallicRoughness":{"metallicFactor":0,"roughnessFactor":1,"baseColorTexture":{"index":1}},"alphaMode":"MASK","alphaCutoff":0.05,"doubleSided":true}],"textures":[{"sampler":0,"source":0,"name":"texture"},{"sampler":1,"source":1,"name":"texture"}],"samplers":[{"magFilter":9728,"minFilter":9728,"wrapS":33071,"wrapT":33071},{"magFilter":9728,"minFilter":9728,"wrapS":33071,"wrapT":33071}],"images":[{"mimeType":"image/png","uri":"data:image/png;base64,"},{"mimeType":"image/png","uri":"data:image/png;base64,"}],"meshes":[{"primitives":[{"mode":4,"attributes":{"POSITION":0,"NORMAL":1,"TEXCOORD_0":2},"indices":3,"material":0}]},{"primitives":[{"mode":4,"attributes":{"POSITION":4,"NORMAL":5,"TEXCOORD_0":6},"indices":7,"material":0}]},{"primitives":[{"mode":4,"attributes":{"POSITION":8,"NORMAL":9,"TEXCOORD_0":10},"indices":11,"material":0}]},{"primitives":[{"mode":4,"attributes":{"POSITION":12,"NORMAL":13,"TEXCOORD_0":14},"indices":15,"material":0}]},{"primitives":[{"mode":4,"attributes":{"POSITION":16,"NORMAL":17,"TEXCOORD_0":18},"indices":19,"material":0}]},{"primitives":[{"mode":4,"attributes":{"POSITION":20,"NORMAL":21,"TEXCOORD_0":22},"indices":23,"material":1}]}]}