{"asset":{"version":"2.0","generator":"Blockbench 5.0.7 glTF exporter"},"scenes":[{"nodes":[0,1,2,3,4,5,6,7,8,9,10,11,12,13,14,15],"name":"blockbench_export"}],"scene":0,"nodes":[{"translation":[0,0.40625,0],"name":"mesh","mesh":0},{"translation":[0,0.84375,0],"name":"mesh","mesh":1},{"translation":[0,0.09375,0],"name":"cylinder","mesh":2},{"rotation":[0,0,-0.21643961393810288,0.9762960071199334],"translation":[0.1875,0.75,0],"name":"cylinder","mesh":3},{"rotation":[0,0,0.7071067811865475,0.7071067811865476],"translation":[0.3125,0.96875,0],"name":"cylinder","mesh":4},{"rotation":[0,0,0.7071067811865475,0.7071067811865476],"translation":[0.125,1.09375,0],"name":"cylinder","mesh":5},{"rotation":[0,0,-1,6.123233995736766e-17],"translation":[0.125,1.1875,0],"name":"cylinder","mesh":6},{"rotation":[0,0,-1,6.123233995736766e-17],"translation":[-0.125,1.1875,0],"name":"cylinder","mesh":7},{"translation":[0.1875,0.34375,0],"name":"cylinder","mesh":8},{"translation":[-0.1875,0.34375,0],"name":"cylinder","mesh":9},{"rotation":[0.4999999999999996,-0.4999999999999994,0.5000000000000003,0.5000000000000007],"translation":[0,0.0625,0],"name":"torus","mesh":10},{"translation":[0.15625,0.75,0],"name":"sphere","mesh":11},{"translation":[-0.15625,0.75,0],"name":"sphere","mesh":12},{"translation":[-0.1875,0.21875,0],"name":"sphere","mesh":13},{"translation":[0.1875,0.21875,0],"name":"sphere","mesh":14},{"translation":[0.28125,0.96875,0],"name":"sphere","mesh":15}],"bufferViews":[{"buffer":0,"byteOffset":0,"byteLength":288,"target":34962,"byteStride":12},{"buffer":0,"byteOffset":288,"byteLength":288,"target":34962,"byteStride":12},{"buffer":0,"byteOffset":576,"byteLength":192,"target":34962,"byteStride":8},{"buffer":0,"byteOffset":768,"byteLength":72,"target":34963},{"buffer":0,"byteOffset":840,"byteLength":288,"target":34962,"byteStride":12},{"buffer":0,"byteOffset":1128,"byteLength":288,"target":34962,"byteStride":12},{"buffer":0,"byteOffset":1416,"byteLength":192,"target":34962,"byteStride":8},{"buffer":0,"byteOffset":1608,"byteLength":72,"target":34963},{"buffer":0,"byteOffset":1680,"byteLength":576,"target":34962,"byteStride":12},{"buffer":0,"byteOffset":2256,"byteLength":576,"target":34962,"byteStride":12},{"buffer":0,"byteOffset":2832,"byteLength":384,"target":34962,"byteStride":8},{"buffer":0,"byteOffset":3216,"byteLength":144,"target":34963},{"buffer":0,"byteOffset":3360,"byteLength":1008,"target":34962,"byteStride":12},{"buffer":0,"byteOffset":4368,"byteLength":1008,"target":34962,"byteStride":12},{"buffer":0,"byteOffset":5376,"byteLength":672,"target":34962,"byteStride":8},{"buffer":0,"byteOffset":6048,"byteLength":216,"target":34963},{"buffer":0,"byteOffset":6264,"byteLength":576,"target":34962,"byteStride":12},{"buffer":0,"byteOffset":6840,"byteLength":576,"target":34962,"byteStride":12},{"buffer":0,"byteOffset":7416,"byteLength":384,"target":34962,"byteStride":8},{"buffer":0,"byteOffset":7800,"byteLength":144,"target":34963},{"buffer":0,"byteOffset":7944,"byteLength":1440,"target":34962,"byteStride":12},{"buffer":0,"byteOffset":9384,"byteLength":1440,"target":34962,"byteStride":12},{"buffer":0,"byteOffset":10824,"byteLength":960,"target":34962,"byteStride":8},{"buffer":0,"byteOffset":11784,"byteLength":288,"target":34963},{"buffer":0,"byteOffset":12072,"byteLength":576,"target":34962,"byteStride":12},{"buffer":0,"byteOffset":12648,"byteLength":576,"target":34962,"byteStride":12},{"buffer":0,"byteOffset":13224,"byteLength":384,"target":34962,"byteStride":8},{"buffer":0,"byteOffset":13608,"byteLength":144,"target":34963},{"buffer":0,"byteOffset":13752,"byteLength":576,"target":34962,"byteStride":12},{"buffer":0,"byteOffset":14328,"byteLength":576,"target":34962,"byteStride":12},{"buffer":0,"byteOffset":14904,"byteLength":384,"target":34962,"byteStride":8},{"buffer":0,"byteOffset":15288,"byteLength":144,"target":34963},{"buffer":0,"byteOffset":15432,"byteLength":1008,"target":34962,"byteStride":12},{"buffer":0,"byteOffset":16440,"byteLength":1008,"target":34962,"byteStride":12},{"buffer":0,"byteOffset":17448,"byteLength":672,"target":34962,"byteStride":8},{"buffer":0,"byteOffset":18120,"byteLength":216,"target":34963},{"buffer":0,"byteOffset":18336,"byteLength":1008,"target":34962,"byteStride":12},{"buffer":0,"byteOffset":19344,"byteLength":1008,"target":34962,"byteStride":12},{"buffer":0,"byteOffset":20352,"byteLength":672,"target":34962,"byteStride":8},{"buffer":0,"byteOffset":21024,"byteLength":216,"target":34963},{"buffer":0,"byteOffset":21240,"byteLength":4608,"target":34962,"byteStride":12},{"buffer":0,"byteOffset":25848,"byteLength":4608,"target":34962,"byteStride":12},{"buffer":0,"byteOffset":30456,"byteLength":3072,"target":34962,"byteStride":8},{"buffer":0,"byteOffset":33528,"byteLength":1152,"target":34963},{"buffer":0,"byteOffset":34680,"byteLength":1344,"target":34962,"byteStride":12},{"buffer":0,"byteOffset":36024,"byteLength":1344,"target":34962,"byteStride":12},{"buffer":0,"byteOffset":37368,"byteLength":896,"target":34962,"byteStride":8},{"buffer":0,"byteOffset":38264,"byteLength":288,"target":34963},{"buffer":0,"byteOffset":38552,"byteLength":1344,"target":34962,"byteStride":12},{"buffer":0,"byteOffset":39896,"byteLength":1344,"target":34962,"byteStride":12},{"buffer":0,"byteOffset":41240,"byteLength":896,"target":34962,"byteStride":8},{"buffer":0,"byteOffset":42136,"byteLength":288,"target":34963},{"buffer":0,"byteOffset":42424,"byteLength":1344,"target":34962,"byteStride":12},{"buffer":0,"byteOffset":43768,"byteLength":1344,"target":34962,"byteStride":12},{"buffer":0,"byteOffset":45112,"byteLength":896,"target":34962,"byteStride":8},{"buffer":0,"byteOffset":46008,"byteLength":288,"target":34963},{"buffer":0,"byteOffset":46296,"byteLength":1344,"target":34962,"byteStride":12},{"buffer":0,"byteOffset":47640,"byteLength":1344,"target":34962,"byteStride":12},{"buffer":0,"byteOffset":48984,"byteLength":896,"target":34962,"byteStride":8},{"buffer":0,"byteOffset":49880,"byteLength":288,"target":34963},{"buffer":0,"byteOffset":50168,"byteLength":1344,"target":34962,"byteStride":12},{"buffer":0,"byteOffset":51512,"byteLength":1344,"target":34962,"byteStride":12},{"buffer":0,"byteOffset":52856,"byteLength":896,"target":34962,"byteStride":8},{"buffer":0,"byteOffset":53752,"byteLength":288,"target":34963}],"buffers":[{"byteLength":54040,"uri":"data:application/octet-stream;base64,"}],"accessors":[{"bufferView":0,"componentType":5126,"count":24,"max":[0.125,0.34375,0.0625],"min":[-0.125,-0.09375,-0.0625],"type":"VEC3"},{"bufferView":1,"componentType":5126,"count":24,"max":[1,1,1],"min":[-1,-1,-1],"type":"VEC3"},{"bufferView":2,"componentType":5126,"count":24,"max":[0.8125,0.90625],"min":[0,0],"type":"VEC2"},{"bufferView":3,"componentType":5123,"count":36,"max":[23],"min":[0],"type":"SCALAR"},{"bufferView":4,"componentType":5126,"count":24,"max":[0.1875,0.1875,0.0625],"min":[-0.1875,0.0625,-0.0625],"type":"VEC3"},{"bufferView":5,"componentType":5126,"count":24,"max":[1,1,1],"min":[-1,-1,-1],"type":"VEC3"},{"bufferView":6,"componentType":5126,"count":24,"max":[0.78125,0.4375],"min":[0,0],"type":"VEC2"},{"bufferView":7,"componentType":5123,"count":36,"max":[23],"min":[0],"type":"SCALAR"},{"bufferView":8,"componentType":5126,"count":48,"max":[0.03125,0.22187499701976776,0.03125],"min":[-0.03125,0.02812499925494194,-0.03125],"type":"VEC3"},{"bufferView":9,"componentType":5126,"count":48,"max":[1,0,1],"min":[-1,0,-1],"type":"VEC3"},{"bufferView":10,"componentType":5126,"count":48,"max":[0.4877312481403351,0.887499988079071],"min":[0.012268749997019768,0],"type":"VEC2"},{"bufferView":11,"componentType":5123,"count":72,"max":[47],"min":[0],"type":"SCALAR"},{"bufferView":12,"componentType":5126,"count":84,"max":[0.015625,0.1875,0.015625],"min":[-0.015625,0.0625,-0.015625],"type":"VEC3"},{"bufferView":13,"componentType":5126,"count":84,"max":[1,0,1],"min":[-1,-1,-1],"type":"VEC3"},{"bufferView":14,"componentType":5126,"count":84,"max":[0.30637499690055847,0.5625],"min":[0.006124999839812517,0],"type":"VEC2"},{"bufferView":15,"componentType":5123,"count":108,"max":[83],"min":[0],"type":"SCALAR"},{"bufferView":16,"componentType":5126,"count":48,"max":[0.015625,0.15937499701976776,0.015625],"min":[-0.015625,0.09062500298023224,-0.015625],"type":"VEC3"},{"bufferView":17,"componentType":5126,"count":48,"max":[1,0,1],"min":[-1,0,-1],"type":"VEC3"},{"bufferView":18,"componentType":5126,"count":48,"max":[0.4375,0.5],"min":[0,0],"type":"VEC2"},{"bufferView":19,"componentType":5123,"count":72,"max":[47],"min":[0],"type":"SCALAR"},{"bufferView":20,"componentType":5126,"count":120,"max":[0.015625,0.26875001192092896,0.015625],"min":[-0.015625,-0.01875000074505806,-0.015625],"type":"VEC3"},{"bufferView":21,"componentType":5126,"count":120,"max":[1,1,1],"min":[-1,-1,-1],"type":"VEC3"},{"bufferView":22,"componentType":5126,"count":120,"max":[0.78125,0.71875],"min":[0,0],"type":"VEC2"},{"bufferView":23,"componentType":5123,"count":144,"max":[119],"min":[0],"type":"SCALAR"},{"bufferView":24,"componentType":5126,"count":48,"max":[0.015625,0.15937499701976776,0.015625],"min":[-0.015625,0.09062500298023224,-0.015625],"type":"VEC3"},{"bufferView":25,"componentType":5126,"count":48,"max":[1,0,1],"min":[-1,0,-1],"type":"VEC3"},{"bufferView":26,"componentType":5126,"count":48,"max":[0.4375,0.5],"min":[0,0],"type":"VEC2"},{"bufferView":27,"componentType":5123,"count":72,"max":[47],"min":[0],"type":"SCALAR"},{"bufferView":28,"componentType":5126,"count":48,"max":[0.015625,0.15937499701976776,0.015625],"min":[-0.015625,0.09062500298023224,-0.015625],"type":"VEC3"},{"bufferView":29,"componentType":5126,"count":48,"max":[1,0,1],"min":[-1,0,-1],"type":"VEC3"},{"bufferView":30,"componentType":5126,"count":48,"max":[0.4375,0.5],"min":[0,0],"type":"VEC2"},{"bufferView":31,"componentType":5123,"count":72,"max":[47],"min":[0],"type":"SCALAR"},{"bufferView":32,"componentType":5126,"count":84,"max":[0.03125,0.34687501192092896,0.03125],"min":[-0.03125,-0.09687499701976776,-0.03125],"type":"VEC3"},{"bufferView":33,"componentType":5126,"count":84,"max":[1,0,1],"min":[-1,-1,-1],"type":"VEC3"},{"bufferView":34,"componentType":5126,"count":84,"max":[0.875,0.887499988079071],"min":[0.012268749997019768,0],"type":"VEC2"},{"bufferView":35,"componentType":5123,"count":108,"max":[83],"min":[0],"type":"SCALAR"},{"bufferView":36,"componentType":5126,"count":84,"max":[0.03125,0.34687501192092896,0.03125],"min":[-0.03125,-0.09687499701976776,-0.03125],"type":"VEC3"},{"bufferView":37,"componentType":5126,"count":84,"max":[1,0,1],"min":[-1,-1,-1],"type":"VEC3"},{"bufferView":38,"componentType":5126,"count":84,"max":[0.875,0.887499988079071],"min":[0.012268749997019768,0],"type":"VEC2"},{"bufferView":39,"componentType":5123,"count":108,"max":[83],"min":[0],"type":"SCALAR"},{"bufferView":40,"componentType":5126,"count":384,"max":[0.0625,0.1272047609090805,0.0625],"min":[-0.0625,-0.1272047609090805,-0.0625],"type":"VEC3"},{"bufferView":41,"componentType":5126,"count":384,"max":[0.9991726279258728,0.2308301478624344,0.9991726279258728],"min":[-0.9991726279258728,-0.2308301478624344,-0.9991726279258728],"type":"VEC3"},{"bufferView":42,"componentType":5126,"count":384,"max":[0.6227718591690063,0.640625],"min":[0.0034735831432044506,0],"type":"VEC2"},{"bufferView":43,"componentType":5123,"count":576,"max":[383],"min":[0],"type":"SCALAR"},{"bufferView":44,"componentType":5126,"count":112,"max":[0.09375,0.09375,0.09375],"min":[-0.09375,-0.09375,-0.09375],"type":"VEC3"},{"bufferView":45,"componentType":5126,"count":112,"max":[0.9238795042037964,0.9238795042037964,0.9238795042037964],"min":[-0.9238795042037964,-0.9238795042037964,-0.9238795042037964],"type":"VEC3"},{"bufferView":46,"componentType":5126,"count":112,"max":[0.515625,0.4375],"min":[0.0004625000001396984,0],"type":"VEC2"},{"bufferView":47,"componentType":5123,"count":144,"max":[111],"min":[0],"type":"SCALAR"},{"bufferView":48,"componentType":5126,"count":112,"max":[0.09375,0.09375,0.09375],"min":[-0.09375,-0.09375,-0.09375],"type":"VEC3"},{"bufferView":49,"componentType":5126,"count":112,"max":[0.9238795042037964,0.9238795042037964,0.9238795042037964],"min":[-0.9238795042037964,-0.9238795042037964,-0.9238795042037964],"type":"VEC3"},{"bufferView":50,"componentType":5126,"count":112,"max":[0.515625,0.4375],"min":[0.0004625000001396984,0],"type":"VEC2"},{"bufferView":51,"componentType":5123,"count":144,"max":[111],"min":[0],"type":"SCALAR"},{"bufferView":52,"componentType":5126,"count":112,"max":[0.03125,0.03125,0.03125],"min":[-0.03125,-0.03125,-0.03125],"type":"VEC3"},{"bufferView":53,"componentType":5126,"count":112,"max":[0.9238795042037964,0.9238795042037964,0.9238795042037964],"min":[-0.9238795042037964,-0.9238795042037964,-0.9238795042037964],"type":"VEC3"},{"bufferView":54,"componentType":5126,"count":112,"max":[0.4892750084400177,0.5625],"min":[0.005362499970942736,0],"type":"VEC2"},{"bufferView":55,"componentType":5123,"count":144,"max":[111],"min":[0],"type":"SCALAR"},{"bufferView":56,"componentType":5126,"count":112,"max":[0.03125,0.03125,0.03125],"min":[-0.03125,-0.03125,-0.03125],"type":"VEC3"},{"bufferView":57,"componentType":5126,"count":112,"max":[0.9238795042037964,0.9238795042037964,0.9238795042037964],"min":[-0.9238795042037964,-0.9238795042037964,-0.9238795042037964],"type":"VEC3"},{"bufferView":58,"componentType":5126,"count":112,"max":[0.4892750084400177,0.5625],"min":[0.005362499970942736,0],"type":"VEC2"},{"bufferView":59,"componentType":5123,"count":144,"max":[111],"min":[0],"type":"SCALAR"},{"bufferView":60,"componentType":5126,"count":112,"max":[0.0625,0.0625,0.0625],"min":[-0.0625,-0.0625,-0.0625],"type":"VEC3"},{"bufferView":61,"componentType":5126,"count":112,"max":[0.9238795042037964,0.9238795042037964,0.9238795042037964],"min":[-0.9238795042037964,-0.9238795042037964,-0.9238795042037964],"type":"VEC3"},{"bufferView":62,"componentType":5126,"count":112,"max":[0.875,0.875],"min":[0.010288460180163383,0],"type":"VEC2"},{"bufferView":63,"componentType":5123,"count":144,"max":[111],"min":[0],"type":"SCALAR"}],"materials":[{"pbrMetallicRoughness":{"metallicFactor":0,"roughnessFactor":1,"baseColorTexture":{"index":0}},"alphaMode":"MASK","alphaCutoff":0.05,"doubleSided":true},{"pbrMetallicRoughness":{"metallicFactor":0,"roughnessFactor":1,"baseColorTexture":{"index":1}},"alphaMode":"MASK","alphaCutoff":0.05,"doubleSided":true},{"pbrMetallicRoughness":{"metallicFactor":0,"roughnessFactor":1,"baseColorTexture":{"index":2}},"alphaMode":"MASK","alphaCutoff":0.05,"doubleSided":true},{"pbrMetallicRoughness":{"metallicFactor":0,"roughnessFactor":1,"baseColorTexture":{"index":3}},"alphaMode":"MASK","alphaCutoff":0.05,"doubleSided":true},{"pbrMetallicRoughness":{"metallicFactor":0,"roughnessFactor":1,"baseColorTexture":{"index":4}},"alphaMode":"MASK","alphaCutoff":0.05,"doubleSided":true},{"pbrMetallicRoughness":{"metallicFactor":0,"roughnessFactor":1,"baseColorTexture":{"index":5}},"alphaMode":"MASK","alphaCutoff":0.05,"doubleSided":true},{"pbrMetallicRoughness":{"metallicFactor":0,"roughnessFactor":1,"baseColorTexture":{"index":6}},"alphaMode":"MASK","alphaCutoff":0.05,"doubleSided":true},{"pbrMetallicRoughness":{"metallicFactor":0,"roughnessFactor":1,"baseColorTexture":{"index":7}},"alphaMode":"MASK","alphaCutoff":0.05,"doubleSided":true},{"pbrMetallicRoughness":{"metallicFactor":0,"roughnessFactor":1,"baseColorTexture":{"index":8}},"alphaMode":"MASK","alphaCutoff":0.05,"doubleSided":true},{"pbrMetallicRoughness":{"metallicFactor":0,"roughnessFactor":1,"baseColorTexture":{"index":9}},"alphaMode":"MASK","alphaCutoff":0.05,"doubleSided":true},{"pbrMetallicRoughness":{"metallicFactor":0,"roughnessFactor":1,"baseColorTexture":{"index":10}},"alphaMode":"MASK","alphaCutoff":0.05,"doubleSided":true},{"pbrMetallicRoughness":{"metallicFactor":0,"roughnessFactor":1,"baseColorTexture":{"index":11}},"alphaMode":"MASK","alphaCutoff":0.05,"doubleSided":true},{"pbrMetallicRoughness":{"metallicFactor":0,"roughnessFactor":1,"baseColorTexture":{"index":12}},"alphaMode":"MASK","alphaCutoff":0.05,"doubleSided":true}],"textures":[{"sampler":0,"source":0,"name":"texture"},{"sampler":1,"source":1,"name":"texture"},{"sampler":2,"source":2,"name":"texture"},{"sampler":3,"source":3,"name":"texture"},{"sampler":4,"source":4,"name":"texture"},{"sampler":5,"source":5,"name":"texture"},{"sampler":6,"source":6,"name":"texture"},{"sampler":7,"source":7,"name":"texture"},{"sampler":8,"source":8,"name":"texture"},{"sampler":9,"source":9,"name":"texture"},{"sampler":10,"source":10,"name":"texture"},{"sampler":11,"source":11,"name":"texture"},{"sampler":12,"source":12,"name":"texture"}],"samplers":[{"magFilter":9728,"minFilter":9728,"wrapS":33071,"wrapT":33071},{"magFilter":9728,"minFilter":9728,"wrapS":33071,"wrapT":33071},{"magFilter":9728,"minFilter":9728,"wrapS":33071,"wrapT":33071},{"magFilter":9728,"minFilter":9728,"wrapS":33071,"wrapT":33071},{"magFilter":9728,"minFilter":9728,"wrapS":33071,"wrapT":33071},{"magFilter":9728,"minFilter":9728,"wrapS":33071,"wrapT":33071},{"magFilter":9728,"minFilter":9728,"wrapS":33071,"wrapT":33071},{"magFilter":9728,"minFilter":9728,"wrapS":33071,"wrapT":33071},{"magFilter":9728,"minFilter":9728,"wrapS":33071,"wrapT":33071},{"magFilter":9728,"minFilter":9728,"wrapS":33071,"wrapT":33071},{"magFilter":9728,"minFilter":9728,"wrapS":33071,"wrapT":33071},{"magFilter":9728,"minFilter":9728,"wrapS":33071,"wrapT":33071},{"magFilter":9728,"minFilter":9728,"wrapS":33071,"wrapT":33071}],"images":[{"mimeType":"image/png","uri":"data:image/png;base64,"},{"mimeType":"image/png","uri":"data:image/png;base64,"},{"mimeType":"image/png","uri":"data:image/png;base64,"},{"mimeType":"image/png","uri":"data:image/png;base64,"},{"mimeType":"image/png","uri":"data:image/png;base64,"},{"mimeType":"image/png","uri":"data:image/png;base64,"},{"mimeType":"image/png","uri":"data:image/png;base64,"},{"mimeType":"image/png","uri":"data:image/png;base64,"},{"mimeType":"image/png","uri":"data:image/png;base64,"},{"mimeType":"image/png","uri":"data:image/png;base64,"},{"mimeType":"image/png","uri":"data:image/png;base64,"},{"mimeType":"image/png","uri":"data:image/png;base64,"},{"mimeType":"image/png","uri":"data:image/png;base64,"}],"meshes":[{"primitives":[{"mode":4,"attributes":{"POSITION":0,"NORMAL":1,"TEXCOORD_0":2},"indices":3,"material":0}]},{"primitives":[{"mode":4,"attributes":{"POSITION":4,"NORMAL":5,"TEXCOORD_0":6},"indices":7,"material":1}]},{"primitives":[{"mode":4,"attributes":{"POSITION":8,"NORMAL":9,"TEXCOORD_0":10},"indices":11,"material":2}]},{"primitives":[{"mode":4,"attributes":{"POSITION":12,"NORMAL":13,"TEXCOORD_0":14},"indices":15,"material":3}]},{"primitives":[{"mode":4,"attributes":{"POSITION":16,"NORMAL":17,"TEXCOORD_0":18},"indices":19,"material":4}]},{"primitives":[{"mode":4,"attributes":{"POSITION":20,"NORMAL":21,"TEXCOORD_0":22},"indices":23,"material":4}]},{"primitives":[{"mode":4,"attributes":{"POSITION":24,"NORMAL":25,"TEXCOORD_0":26},"indices":27,"material":4}]},{"primitives":[{"mode":4,"attributes":{"POSITION":28,"NORMAL":29,"TEXCOORD_0":30},"indices":31,"material":4}]},{"primitives":[{"mode":4,"attributes":{"POSITION":32,"NORMAL":33,"TEXCOORD_0":34},"indices":35,"material":5}]},{"primitives":[{"mode":4,"attributes":{"POSITION":36,"NORMAL":37,"TEXCOORD_0":38},"indices":39,"material":6}]},{"primitives":[{"mode":4,"attributes":{"POSITION":40,"NORMAL":41,"TEXCOORD_0":42},"indices":43,"material":7}]},{"primitives":[{"mode":4,"attributes":{"POSITION":44,"NORMAL":45,"TEXCOORD_0":46},"indices":47,"material":8}]},{"primitives":[{"mode":4,"attributes":{"POSITION":48,"NORMAL":49,"TEXCOORD_0":50},"indices":51,"material":9}]},{"primitives":[{"mode":4,"attributes":{"POSITION":52,"NORMAL":53,"TEXCOORD_0":54},"indices":55,"material":10}]},{"primitives":[{"mode":4,"attributes":{"POSITION":56,"NORMAL":57,"TEXCOORD_0":58},"indices":59,"material":11}]},{"primitives":[{"mode":4,"attributes":{"POSITION":60,"NORMAL":61,"TEXCOORD_0":62},"indices":63,"material":12}]}]}