{"asset":{"version":"2.0","generator":"Blockbench 5.0.7 glTF exporter"},"scenes":[{"nodes":[0,1,2,3,4,5],"name":"blockbench_export"}],"scene":0,"nodes":[{"rotation":[0,0,0.043619387365336,0.9990482215818578],"translation":[0,0.125,0],"name":"beveled_cuboid","mesh":0},{"rotation":[0,0,-0.7071067811865475,0.7071067811865476],"translation":[0,0.04375000000000001,-0.125],"name":"torus","mesh":1},{"rotation":[-0.7071067811865482,0.7071067811865468,2.66915717976242e-15,2.755752785385964e-15],"translation":[0,0.04375000000000001,0.125],"name":"torus","mesh":2},{"rotation":[0,0,0.043619387365336,0.9990482215818578],"translation":[-0.0234375,0.375,0],"name":"mesh","mesh":3},{"translation":[0.0015624999999999997,0,-0.20625000000000004],"name":"mesh","mesh":4},{"translation":[0.0015624999999999997,0,0.20624999999999993],"name":"mesh","mesh":5}],"bufferViews":[{"buffer":0,"byteOffset":0,"byteLength":1152,"target":34962,"byteStride":12},{"buffer":0,"byteOffset":1152,"byteLength":1152,"target":34962,"byteStride":12},{"buffer":0,"byteOffset":2304,"byteLength":768,"target":34962,"byteStride":8},{"buffer":0,"byteOffset":3072,"byteLength":264,"target":34963},{"buffer":0,"byteOffset":3336,"byteLength":1152,"target":34962,"byteStride":12},{"buffer":0,"byteOffset":4488,"byteLength":1152,"target":34962,"byteStride":12},{"buffer":0,"byteOffset":5640,"byteLength":768,"target":34962,"byteStride":8},{"buffer":0,"byteOffset":6408,"byteLength":288,"target":34963},{"buffer":0,"byteOffset":6696,"byteLength":1152,"target":34962,"byteStride":12},{"buffer":0,"byteOffset":7848,"byteLength":1152,"target":34962,"byteStride":12},{"buffer":0,"byteOffset":9000,"byteLength":768,"target":34962,"byteStride":8},{"buffer":0,"byteOffset":9768,"byteLength":288,"target":34963},{"buffer":0,"byteOffset":10056,"byteLength":288,"target":34962,"byteStride":12},{"buffer":0,"byteOffset":10344,"byteLength":288,"target":34962,"byteStride":12},{"buffer":0,"byteOffset":10632,"byteLength":192,"target":34962,"byteStride":8},{"buffer":0,"byteOffset":10824,"byteLength":72,"target":34963},{"buffer":0,"byteOffset":10896,"byteLength":288,"target":34962,"byteStride":12},{"buffer":0,"byteOffset":11184,"byteLength":288,"target":34962,"byteStride":12},{"buffer":0,"byteOffset":11472,"byteLength":192,"target":34962,"byteStride":8},{"buffer":0,"byteOffset":11664,"byteLength":72,"target":34963},{"buffer":0,"byteOffset":11736,"byteLength":288,"target":34962,"byteStride":12},{"buffer":0,"byteOffset":12024,"byteLength":288,"target":34962,"byteStride":12},{"buffer":0,"byteOffset":12312,"byteLength":192,"target":34962,"byteStride":8},{"buffer":0,"byteOffset":12504,"byteLength":72,"target":34963}],"buffers":[{"byteLength":12576,"uri":"data:application/octet-stream;base64,"}],"accessors":[{"bufferView":0,"componentType":5126,"count":96,"max":[0.09375,0.375,0.125],"min":[-0.09375,-0.125,-0.125],"type":"VEC3"},{"bufferView":1,"componentType":5126,"count":96,"max":[1,1,1],"min":[-1,-1,-1],"type":"VEC3"},{"bufferView":2,"componentType":5126,"count":96,"max":[0.46875,0.565971851348877],"min":[0,0],"type":"VEC2"},{"bufferView":3,"componentType":5123,"count":132,"max":[95],"min":[0],"type":"SCALAR"},{"bufferView":4,"componentType":5126,"count":96,"max":[0.035041261464357376,0.03125,0.035041261464357376],"min":[-0.08995874226093292,-0.03125,-0.08995874226093292],"type":"VEC3"},{"bufferView":5,"componentType":5126,"count":96,"max":[0.973629355430603,0.8068281412124634,0.973629355430603],"min":[-0.973629355430603,-0.8068281412124634,-0.973629355430603],"type":"VEC3"},{"bufferView":6,"componentType":5126,"count":96,"max":[0.7460781335830688,0.65625],"min":[0.0009782233973965049,0],"type":"VEC2"},{"bufferView":7,"componentType":5123,"count":144,"max":[95],"min":[0],"type":"SCALAR"},{"bufferView":8,"componentType":5126,"count":96,"max":[0.035041261464357376,0.03125,0.035041261464357376],"min":[-0.08995874226093292,-0.03125,-0.08995874226093292],"type":"VEC3"},{"bufferView":9,"componentType":5126,"count":96,"max":[0.973629355430603,0.8068281412124634,0.973629355430603],"min":[-0.973629355430603,-0.8068281412124634,-0.973629355430603],"type":"VEC3"},{"bufferView":10,"componentType":5126,"count":96,"max":[0.7460781335830688,0.65625],"min":[0.0009782233973965049,0],"type":"VEC2"},{"bufferView":11,"componentType":5123,"count":144,"max":[95],"min":[0],"type":"SCALAR"},{"bufferView":12,"componentType":5126,"count":24,"max":[0.109375,0.03125,0.1328125],"min":[-0.109375,0,-0.1328125],"type":"VEC3"},{"bufferView":13,"componentType":5126,"count":24,"max":[1,1,1],"min":[-1,-1,-1],"type":"VEC3"},{"bufferView":14,"componentType":5126,"count":24,"max":[0.59375,0.40625],"min":[0,0],"type":"VEC2"},{"bufferView":15,"componentType":5123,"count":36,"max":[23],"min":[0],"type":"SCALAR"},{"bufferView":16,"componentType":5126,"count":24,"max":[0.046875,0.03125,0.0390625],"min":[-0.046875,0,-0.0390625],"type":"VEC3"},{"bufferView":17,"componentType":5126,"count":24,"max":[1,1,1],"min":[-1,-1,-1],"type":"VEC3"},{"bufferView":18,"componentType":5126,"count":24,"max":[0.59375,0.40625],"min":[0,0],"type":"VEC2"},{"bufferView":19,"componentType":5123,"count":36,"max":[23],"min":[0],"type":"SCALAR"},{"bufferView":20,"componentType":5126,"count":24,"max":[0.046875,0.03125,0.0390625],"min":[-0.046875,0,-0.0390625],"type":"VEC3"},{"bufferView":21,"componentType":5126,"count":24,"max":[1,1,1],"min":[-1,-1,-1],"type":"VEC3"},{"bufferView":22,"componentType":5126,"count":24,"max":[0.59375,0.40625],"min":[0,0],"type":"VEC2"},{"bufferView":23,"componentType":5123,"count":36,"max":[23],"min":[0],"type":"SCALAR"}],"materials":[{"pbrMetallicRoughness":{"metallicFactor":0,"roughnessFactor":1,"baseColorTexture":{"index":0}},"alphaMode":"MASK","alphaCutoff":0.05,"doubleSided":true},{"pbrMetallicRoughness":{"metallicFactor":0,"roughnessFactor":1,"baseColorTexture":{"index":1}},"alphaMode":"MASK","alphaCutoff":0.05,"doubleSided":true},{"pbrMetallicRoughness":{"metallicFactor":0,"roughnessFactor":1,"baseColorTexture":{"index":2}},"alphaMode":"MASK","alphaCutoff":0.05,"doubleSided":true},{"pbrMetallicRoughness":{"metallicFactor":0,"roughnessFactor":1,"baseColorTexture":{"index":3}},"alphaMode":"MASK","alphaCutoff":0.05,"doubleSided":true}],"textures":[{"sampler":0,"source":0,"name":"texture"},{"sampler":1,"source":1,"name":"texture"},{"sampler":2,"source":2,"name":"texture"},{"sampler":3,"source":3,"name":"texture"}],"samplers":[{"magFilter":9728,"minFilter":9728,"wrapS":33071,"wrapT":33071},{"magFilter":9728,"minFilter":9728,"wrapS":33071,"wrapT":33071},{"magFilter":9728,"minFilter":9728,"wrapS":33071,"wrapT":33071},{"magFilter":9728,"minFilter":9728,"wrapS":33071,"wrapT":33071}],"images":[{"mimeType":"image/png","uri":"data:image/png;base64,"},{"mimeType":"image/png","uri":"data:image/png;base64,"},{"mimeType":"image/png","uri":"data:image/png;base64,"},{"mimeType":"image/png","uri":"data:image/png;base64,"}],"meshes":[{"primitives":[{"mode":4,"attributes":{"POSITION":0,"NORMAL":1,"TEXCOORD_0":2},"indices":3,"material":0}]},{"primitives":[{"mode":4,"attributes":{"POSITION":4,"NORMAL":5,"TEXCOORD_0":6},"indices":7,"material":1}]},{"primitives":[{"mode":4,"attributes":{"POSITION":8,"NORMAL":9,"TEXCOORD_0":10},"indices":11,"material":2}]},{"primitives":[{"mode":4,"attributes":{"POSITION":12,"NORMAL":13,"TEXCOORD_0":14},"indices":15,"material":3}]},{"primitives":[{"mode":4,"attributes":{"POSITION":16,"NORMAL":17,"TEXCOORD_0":18},"indices":19,"material":3}]},{"primitives":[{"mode":4,"attributes":{"POSITION":20,"NORMAL":21,"TEXCOORD_0":22},"indices":23,"material":3}]}]}