{"asset":{"version":"2.0","generator":"Blockbench 5.0.7 glTF exporter"},"scenes":[{"nodes":[0,1,2,3,4,5,6,7,8],"name":"blockbench_export"}],"scene":0,"nodes":[{"translation":[0,0.15625,0],"name":"cylinder","mesh":0},{"translation":[0,0.4375,0],"name":"sphere","mesh":1},{"translation":[0,0.125,0],"name":"sphere","mesh":2},{"translation":[0.09375,-0.09375,-0.03125],"name":"mesh","mesh":3},{"translation":[-0.09375,-0.09375,-0.03125],"name":"mesh","mesh":4},{"translation":[0.109375,0.296875,-0.1875],"name":"mesh","mesh":5},{"rotation":[0,-0.3214394653031616,0,0.9469301294951057],"translation":[0.15625,0.140625,-0.15625],"name":"mesh","mesh":6},{"rotation":[0,0.3214394653031616,0,0.9469301294951057],"translation":[-0.15625,0.140625,-0.15625],"name":"mesh","mesh":7},{"translation":[-0.10625,0.296875,-0.1875],"name":"mesh","mesh":8}],"bufferViews":[{"buffer":0,"byteOffset":0,"byteLength":384,"target":34962,"byteStride":12},{"buffer":0,"byteOffset":384,"byteLength":384,"target":34962,"byteStride":12},{"buffer":0,"byteOffset":768,"byteLength":256,"target":34962,"byteStride":8},{"buffer":0,"byteOffset":1024,"byteLength":96,"target":34963},{"buffer":0,"byteOffset":1120,"byteLength":672,"target":34962,"byteStride":12},{"buffer":0,"byteOffset":1792,"byteLength":672,"target":34962,"byteStride":12},{"buffer":0,"byteOffset":2464,"byteLength":448,"target":34962,"byteStride":8},{"buffer":0,"byteOffset":2912,"byteLength":144,"target":34963},{"buffer":0,"byteOffset":3056,"byteLength":672,"target":34962,"byteStride":12},{"buffer":0,"byteOffset":3728,"byteLength":672,"target":34962,"byteStride":12},{"buffer":0,"byteOffset":4400,"byteLength":448,"target":34962,"byteStride":8},{"buffer":0,"byteOffset":4848,"byteLength":144,"target":34963},{"buffer":0,"byteOffset":4992,"byteLength":288,"target":34962,"byteStride":12},{"buffer":0,"byteOffset":5280,"byteLength":288,"target":34962,"byteStride":12},{"buffer":0,"byteOffset":5568,"byteLength":192,"target":34962,"byteStride":8},{"buffer":0,"byteOffset":5760,"byteLength":72,"target":34963},{"buffer":0,"byteOffset":5832,"byteLength":288,"target":34962,"byteStride":12},{"buffer":0,"byteOffset":6120,"byteLength":288,"target":34962,"byteStride":12},{"buffer":0,"byteOffset":6408,"byteLength":192,"target":34962,"byteStride":8},{"buffer":0,"byteOffset":6600,"byteLength":72,"target":34963},{"buffer":0,"byteOffset":6672,"byteLength":240,"target":34962,"byteStride":12},{"buffer":0,"byteOffset":6912,"byteLength":240,"target":34962,"byteStride":12},{"buffer":0,"byteOffset":7152,"byteLength":160,"target":34962,"byteStride":8},{"buffer":0,"byteOffset":7312,"byteLength":60,"target":34963},{"buffer":0,"byteOffset":7372,"byteLength":240,"target":34962,"byteStride":12},{"buffer":0,"byteOffset":7612,"byteLength":240,"target":34962,"byteStride":12},{"buffer":0,"byteOffset":7852,"byteLength":160,"target":34962,"byteStride":8},{"buffer":0,"byteOffset":8012,"byteLength":60,"target":34963},{"buffer":0,"byteOffset":8072,"byteLength":240,"target":34962,"byteStride":12},{"buffer":0,"byteOffset":8312,"byteLength":240,"target":34962,"byteStride":12},{"buffer":0,"byteOffset":8552,"byteLength":160,"target":34962,"byteStride":8},{"buffer":0,"byteOffset":8712,"byteLength":60,"target":34963},{"buffer":0,"byteOffset":8772,"byteLength":240,"target":34962,"byteStride":12},{"buffer":0,"byteOffset":9012,"byteLength":240,"target":34962,"byteStride":12},{"buffer":0,"byteOffset":9252,"byteLength":160,"target":34962,"byteStride":8},{"buffer":0,"byteOffset":9412,"byteLength":60,"target":34963}],"buffers":[{"byteLength":9472,"uri":"data:application/octet-stream;base64,"}],"accessors":[{"bufferView":0,"componentType":5126,"count":32,"max":[0.21875,0.28125,0.21875],"min":[-0.21875,-0.03125,-0.21875],"type":"VEC3"},{"bufferView":1,"componentType":5126,"count":32,"max":[1,0,1],"min":[-1,0,-1],"type":"VEC3"},{"bufferView":2,"componentType":5126,"count":32,"max":[0.84375,0.65625],"min":[0,0],"type":"VEC2"},{"bufferView":3,"componentType":5123,"count":48,"max":[31],"min":[0],"type":"SCALAR"},{"bufferView":4,"componentType":5126,"count":56,"max":[0.21875,0.1875,0.21875],"min":[-0.21875,0,-0.21875],"type":"VEC3"},{"bufferView":5,"componentType":5126,"count":56,"max":[0.9003788232803345,0.9423679113388062,0.9003788232803345],"min":[-0.9003788232803345,0.43510666489601135,-0.9003788232803345],"type":"VEC3"},{"bufferView":6,"componentType":5126,"count":56,"max":[0.7156093716621399,0.71875],"min":[0.003029687562957406,0],"type":"VEC2"},{"bufferView":7,"componentType":5123,"count":72,"max":[55],"min":[0],"type":"SCALAR"},{"bufferView":8,"componentType":5126,"count":56,"max":[0.21875,0,0.21875],"min":[-0.21875,-0.09375,-0.21875],"type":"VEC3"},{"bufferView":9,"componentType":5126,"count":56,"max":[0.7190492153167725,-0.6949589848518372,0.7190492153167725],"min":[-0.7190492153167725,-0.9846062064170837,-0.7190492153167725],"type":"VEC3"},{"bufferView":10,"componentType":5126,"count":56,"max":[0.8690962791442871,0.5625],"min":[0.0005843749968335032,0.01283717155456543],"type":"VEC2"},{"bufferView":11,"componentType":5123,"count":72,"max":[55],"min":[0],"type":"SCALAR"},{"bufferView":12,"componentType":5126,"count":24,"max":[0.0625,0.15625,0.125],"min":[-0.0625,0.09375,-0.125],"type":"VEC3"},{"bufferView":13,"componentType":5126,"count":24,"max":[1,1,1],"min":[-1,-1,-1],"type":"VEC3"},{"bufferView":14,"componentType":5126,"count":24,"max":[0.53125,0.34375],"min":[0,0],"type":"VEC2"},{"bufferView":15,"componentType":5123,"count":36,"max":[23],"min":[0],"type":"SCALAR"},{"bufferView":16,"componentType":5126,"count":24,"max":[0.0625,0.15625,0.125],"min":[-0.0625,0.09375,-0.125],"type":"VEC3"},{"bufferView":17,"componentType":5126,"count":24,"max":[1,1,1],"min":[-1,-1,-1],"type":"VEC3"},{"bufferView":18,"componentType":5126,"count":24,"max":[0.53125,0.34375],"min":[0,0],"type":"VEC2"},{"bufferView":19,"componentType":5123,"count":36,"max":[23],"min":[0],"type":"SCALAR"},{"bufferView":20,"componentType":5126,"count":20,"max":[0.05312500149011612,0.11562500149011612,0.0625],"min":[-0.05312500149011612,0.00937500037252903,-0.0625],"type":"VEC3"},{"bufferView":21,"componentType":5126,"count":20,"max":[1,1,0],"min":[-1,-1,-1],"type":"VEC3"},{"bufferView":22,"componentType":5126,"count":20,"max":[0.5,0.6875],"min":[0,0],"type":"VEC2"},{"bufferView":23,"componentType":5123,"count":30,"max":[19],"min":[0],"type":"SCALAR"},{"bufferView":24,"componentType":5126,"count":20,"max":[0.0390625,0.09375,0.015625],"min":[-0.0390625,0.03125,-0.015625],"type":"VEC3"},{"bufferView":25,"componentType":5126,"count":20,"max":[1,1,0],"min":[-1,-1,-1],"type":"VEC3"},{"bufferView":26,"componentType":5126,"count":20,"max":[0.875,0.875],"min":[0,0],"type":"VEC2"},{"bufferView":27,"componentType":5123,"count":30,"max":[19],"min":[0],"type":"SCALAR"},{"bufferView":28,"componentType":5126,"count":20,"max":[0.0390625,0.09375,0.015625],"min":[-0.0390625,0.03125,-0.015625],"type":"VEC3"},{"bufferView":29,"componentType":5126,"count":20,"max":[1,1,0],"min":[-1,-1,-1],"type":"VEC3"},{"bufferView":30,"componentType":5126,"count":20,"max":[0.875,0.875],"min":[0,0],"type":"VEC2"},{"bufferView":31,"componentType":5123,"count":30,"max":[19],"min":[0],"type":"SCALAR"},{"bufferView":32,"componentType":5126,"count":20,"max":[0.05312500149011612,0.11562500149011612,0.0625],"min":[-0.05312500149011612,0.00937500037252903,-0.0625],"type":"VEC3"},{"bufferView":33,"componentType":5126,"count":20,"max":[1,1,0],"min":[-1,-1,-1],"type":"VEC3"},{"bufferView":34,"componentType":5126,"count":20,"max":[0.5,0.6875],"min":[0,0],"type":"VEC2"},{"bufferView":35,"componentType":5123,"count":30,"max":[19],"min":[0],"type":"SCALAR"}],"materials":[{"pbrMetallicRoughness":{"metallicFactor":0,"roughnessFactor":1,"baseColorTexture":{"index":0}},"alphaMode":"MASK","alphaCutoff":0.05,"doubleSided":true},{"pbrMetallicRoughness":{"metallicFactor":0,"roughnessFactor":1,"baseColorTexture":{"index":1}},"alphaMode":"MASK","alphaCutoff":0.05,"doubleSided":true},{"pbrMetallicRoughness":{"metallicFactor":0,"roughnessFactor":1,"baseColorTexture":{"index":2}},"alphaMode":"MASK","alphaCutoff":0.05,"doubleSided":true},{"pbrMetallicRoughness":{"metallicFactor":0,"roughnessFactor":1,"baseColorTexture":{"index":3}},"alphaMode":"MASK","alphaCutoff":0.05,"doubleSided":true},{"pbrMetallicRoughness":{"metallicFactor":0,"roughnessFactor":1,"baseColorTexture":{"index":4}},"alphaMode":"MASK","alphaCutoff":0.05,"doubleSided":true},{"pbrMetallicRoughness":{"metallicFactor":0,"roughnessFactor":1,"baseColorTexture":{"index":5}},"alphaMode":"MASK","alphaCutoff":0.05,"doubleSided":true},{"pbrMetallicRoughness":{"metallicFactor":0,"roughnessFactor":1,"baseColorTexture":{"index":6}},"alphaMode":"MASK","alphaCutoff":0.05,"doubleSided":true},{"pbrMetallicRoughness":{"metallicFactor":0,"roughnessFactor":1,"baseColorTexture":{"index":7}},"alphaMode":"MASK","alphaCutoff":0.05,"doubleSided":true},{"pbrMetallicRoughness":{"metallicFactor":0,"roughnessFactor":1,"baseColorTexture":{"index":8}},"alphaMode":"MASK","alphaCutoff":0.05,"doubleSided":true}],"textures":[{"sampler":0,"source":0,"name":"texture3.png"},{"sampler":1,"source":1,"name":"texture4.png"},{"sampler":2,"source":2,"name":"texture5.png"},{"sampler":3,"source":3,"name":"texture2.png"},{"sampler":4,"source":4,"name":"texture.png"},{"sampler":5,"source":5,"name":"texture6.png"},{"sampler":6,"source":6,"name":"texture9.png"},{"sampler":7,"source":7,"name":"texture8.png"},{"sampler":8,"source":8,"name":"texture7.png"}],"samplers":[{"magFilter":9728,"minFilter":9728,"wrapS":33071,"wrapT":33071},{"magFilter":9728,"minFilter":9728,"wrapS":33071,"wrapT":33071},{"magFilter":9728,"minFilter":9728,"wrapS":33071,"wrapT":33071},{"magFilter":9728,"minFilter":9728,"wrapS":33071,"wrapT":33071},{"magFilter":9728,"minFilter":9728,"wrapS":33071,"wrapT":33071},{"magFilter":9728,"minFilter":9728,"wrapS":33071,"wrapT":33071},{"magFilter":9728,"minFilter":9728,"wrapS":33071,"wrapT":33071},{"magFilter":9728,"minFilter":9728,"wrapS":33071,"wrapT":33071},{"magFilter":9728,"minFilter":9728,"wrapS":33071,"wrapT":33071}],"images":[{"mimeType":"image/png","uri":"data:image/png;base64,"},{"mimeType":"image/png","uri":"data:image/png;base64,"},{"mimeType":"image/png","uri":"data:image/png;base64,"},{"mimeType":"image/png","uri":"data:image/png;base64,"},{"mimeType":"image/png","uri":"data:image/png;base64,"},{"mimeType":"image/png","uri":"data:image/png;base64,"},{"mimeType":"image/png","uri":"data:image/png;base64,"},{"mimeType":"image/png","uri":"data:image/png;base64,"},{"mimeType":"image/png","uri":"data:image/png;base64,"}],"meshes":[{"primitives":[{"mode":4,"attributes":{"POSITION":0,"NORMAL":1,"TEXCOORD_0":2},"indices":3,"material":0}]},{"primitives":[{"mode":4,"attributes":{"POSITION":4,"NORMAL":5,"TEXCOORD_0":6},"indices":7,"material":1}]},{"primitives":[{"mode":4,"attributes":{"POSITION":8,"NORMAL":9,"TEXCOORD_0":10},"indices":11,"material":2}]},{"primitives":[{"mode":4,"attributes":{"POSITION":12,"NORMAL":13,"TEXCOORD_0":14},"indices":15,"material":3}]},{"primitives":[{"mode":4,"attributes":{"POSITION":16,"NORMAL":17,"TEXCOORD_0":18},"indices":19,"material":4}]},{"primitives":[{"mode":4,"attributes":{"POSITION":20,"NORMAL":21,"TEXCOORD_0":22},"indices":23,"material":5}]},{"primitives":[{"mode":4,"attributes":{"POSITION":24,"NORMAL":25,"TEXCOORD_0":26},"indices":27,"material":6}]},{"primitives":[{"mode":4,"attributes":{"POSITION":28,"NORMAL":29,"TEXCOORD_0":30},"indices":31,"material":7}]},{"primitives":[{"mode":4,"attributes":{"POSITION":32,"NORMAL":33,"TEXCOORD_0":34},"indices":35,"material":8}]}]}