{"asset":{"version":"2.0","generator":"Blockbench 5.1.0 glTF exporter"},"scenes":[{"nodes":[0,1,2,3,4,5,6],"name":"blockbench_export"}],"scene":0,"nodes":[{"translation":[0,0.15625,0],"name":"mesh","mesh":0},{"translation":[0,0.0625,0],"name":"mesh","mesh":1},{"translation":[0,0.1906250000000001,0],"name":"mesh","mesh":2},{"translation":[0.1875,0,-0.15625],"name":"mesh","mesh":3},{"translation":[-0.1875,0,-0.15625],"name":"mesh","mesh":4},{"translation":[-0.1875,0,0.15625],"name":"mesh","mesh":5},{"translation":[0.1875,0,0.15625],"name":"mesh","mesh":6}],"bufferViews":[{"buffer":0,"byteOffset":0,"byteLength":864,"target":34962,"byteStride":12},{"buffer":0,"byteOffset":864,"byteLength":864,"target":34962,"byteStride":12},{"buffer":0,"byteOffset":1728,"byteLength":576,"target":34962,"byteStride":8},{"buffer":0,"byteOffset":2304,"byteLength":216,"target":34963},{"buffer":0,"byteOffset":2520,"byteLength":288,"target":34962,"byteStride":12},{"buffer":0,"byteOffset":2808,"byteLength":288,"target":34962,"byteStride":12},{"buffer":0,"byteOffset":3096,"byteLength":192,"target":34962,"byteStride":8},{"buffer":0,"byteOffset":3288,"byteLength":72,"target":34963},{"buffer":0,"byteOffset":3360,"byteLength":240,"target":34962,"byteStride":12},{"buffer":0,"byteOffset":3600,"byteLength":240,"target":34962,"byteStride":12},{"buffer":0,"byteOffset":3840,"byteLength":160,"target":34962,"byteStride":8},{"buffer":0,"byteOffset":4000,"byteLength":60,"target":34963},{"buffer":0,"byteOffset":4060,"byteLength":240,"target":34962,"byteStride":12},{"buffer":0,"byteOffset":4300,"byteLength":240,"target":34962,"byteStride":12},{"buffer":0,"byteOffset":4540,"byteLength":160,"target":34962,"byteStride":8},{"buffer":0,"byteOffset":4700,"byteLength":60,"target":34963},{"buffer":0,"byteOffset":4760,"byteLength":240,"target":34962,"byteStride":12},{"buffer":0,"byteOffset":5000,"byteLength":240,"target":34962,"byteStride":12},{"buffer":0,"byteOffset":5240,"byteLength":160,"target":34962,"byteStride":8},{"buffer":0,"byteOffset":5400,"byteLength":60,"target":34963},{"buffer":0,"byteOffset":5460,"byteLength":240,"target":34962,"byteStride":12},{"buffer":0,"byteOffset":5700,"byteLength":240,"target":34962,"byteStride":12},{"buffer":0,"byteOffset":5940,"byteLength":160,"target":34962,"byteStride":8},{"buffer":0,"byteOffset":6100,"byteLength":60,"target":34963},{"buffer":0,"byteOffset":6160,"byteLength":240,"target":34962,"byteStride":12},{"buffer":0,"byteOffset":6400,"byteLength":240,"target":34962,"byteStride":12},{"buffer":0,"byteOffset":6640,"byteLength":160,"target":34962,"byteStride":8},{"buffer":0,"byteOffset":6800,"byteLength":60,"target":34963}],"buffers":[{"byteLength":6860,"uri":"data:application/octet-stream;base64,"}],"accessors":[{"bufferView":0,"componentType":5126,"count":72,"max":[0.25,0.4618085026741028,0.21875],"min":[-0.25,0.09375,-0.21875],"type":"VEC3"},{"bufferView":1,"componentType":5126,"count":72,"max":[1,1,1],"min":[-1,-1,-1],"type":"VEC3"},{"bufferView":2,"componentType":5126,"count":72,"max":[0.78125,0.6028437614440918],"min":[0,0],"type":"VEC2"},{"bufferView":3,"componentType":5123,"count":108,"max":[71],"min":[0],"type":"SCALAR"},{"bufferView":4,"componentType":5126,"count":24,"max":[0.25,0.140625,0.21875],"min":[-0.25,0.109375,-0.21875],"type":"VEC3"},{"bufferView":5,"componentType":5126,"count":24,"max":[1,1,1],"min":[-1,-1,-1],"type":"VEC3"},{"bufferView":6,"componentType":5126,"count":24,"max":[0.78125,0.453125],"min":[0,0],"type":"VEC2"},{"bufferView":7,"componentType":5123,"count":36,"max":[23],"min":[0],"type":"SCALAR"},{"bufferView":8,"componentType":5126,"count":20,"max":[0.1875,0.12812499701976776,0.1875],"min":[-0.1875,0.12187500298023224,-0.1875],"type":"VEC3"},{"bufferView":9,"componentType":5126,"count":20,"max":[1,1,1],"min":[-1,0,-1],"type":"VEC3"},{"bufferView":10,"componentType":5126,"count":20,"max":[0.78125,0.375],"min":[0,0],"type":"VEC2"},{"bufferView":11,"componentType":5123,"count":30,"max":[19],"min":[0],"type":"SCALAR"},{"bufferView":12,"componentType":5126,"count":20,"max":[0.03125,0.25,0.03125],"min":[-0.03125,0,-0.03125],"type":"VEC3"},{"bufferView":13,"componentType":5126,"count":20,"max":[1,0,1],"min":[-1,-1,-1],"type":"VEC3"},{"bufferView":14,"componentType":5126,"count":20,"max":[0.625,0.53125],"min":[0.375,0],"type":"VEC2"},{"bufferView":15,"componentType":5123,"count":30,"max":[19],"min":[0],"type":"SCALAR"},{"bufferView":16,"componentType":5126,"count":20,"max":[0.03125,0.25,0.03125],"min":[-0.03125,0,-0.03125],"type":"VEC3"},{"bufferView":17,"componentType":5126,"count":20,"max":[1,0,1],"min":[-1,-1,-1],"type":"VEC3"},{"bufferView":18,"componentType":5126,"count":20,"max":[0.625,0.53125],"min":[0.09375,0],"type":"VEC2"},{"bufferView":19,"componentType":5123,"count":30,"max":[19],"min":[0],"type":"SCALAR"},{"bufferView":20,"componentType":5126,"count":20,"max":[0.03125,0.25,0.03125],"min":[-0.03125,0,-0.03125],"type":"VEC3"},{"bufferView":21,"componentType":5126,"count":20,"max":[1,0,1],"min":[-1,-1,-1],"type":"VEC3"},{"bufferView":22,"componentType":5126,"count":20,"max":[0.625,0.53125],"min":[0,0],"type":"VEC2"},{"bufferView":23,"componentType":5123,"count":30,"max":[19],"min":[0],"type":"SCALAR"},{"bufferView":24,"componentType":5126,"count":20,"max":[0.03125,0.25,0.03125],"min":[-0.03125,0,-0.03125],"type":"VEC3"},{"bufferView":25,"componentType":5126,"count":20,"max":[1,0,1],"min":[-1,-1,-1],"type":"VEC3"},{"bufferView":26,"componentType":5126,"count":20,"max":[0.71875,0.8125],"min":[0,0],"type":"VEC2"},{"bufferView":27,"componentType":5123,"count":30,"max":[19],"min":[0],"type":"SCALAR"}],"materials":[{"pbrMetallicRoughness":{"metallicFactor":0,"roughnessFactor":1,"baseColorTexture":{"index":0}},"alphaMode":"MASK","alphaCutoff":0.05,"doubleSided":true},{"pbrMetallicRoughness":{"metallicFactor":0,"roughnessFactor":1,"baseColorTexture":{"index":1}},"alphaMode":"MASK","alphaCutoff":0.05,"doubleSided":true},{"pbrMetallicRoughness":{"metallicFactor":0,"roughnessFactor":1,"baseColorTexture":{"index":2}},"alphaMode":"MASK","alphaCutoff":0.05,"doubleSided":true}],"textures":[{"sampler":0,"source":0,"name":"texture"},{"sampler":1,"source":1,"name":"texture"},{"sampler":2,"source":2,"name":"texture"}],"samplers":[{"magFilter":9728,"minFilter":9728,"wrapS":33071,"wrapT":33071},{"magFilter":9728,"minFilter":9728,"wrapS":33071,"wrapT":33071},{"magFilter":9728,"minFilter":9728,"wrapS":33071,"wrapT":33071}],"images":[{"mimeType":"image/png","uri":"data:image/png;base64,"},{"mimeType":"image/png","uri":"data:image/png;base64,"},{"mimeType":"image/png","uri":"data:image/png;base64,"}],"meshes":[{"primitives":[{"mode":4,"attributes":{"POSITION":0,"NORMAL":1,"TEXCOORD_0":2},"indices":3,"material":0}]},{"primitives":[{"mode":4,"attributes":{"POSITION":4,"NORMAL":5,"TEXCOORD_0":6},"indices":7,"material":0}]},{"primitives":[{"mode":4,"attributes":{"POSITION":8,"NORMAL":9,"TEXCOORD_0":10},"indices":11,"material":1}]},{"primitives":[{"mode":4,"attributes":{"POSITION":12,"NORMAL":13,"TEXCOORD_0":14},"indices":15,"material":2}]},{"primitives":[{"mode":4,"attributes":{"POSITION":16,"NORMAL":17,"TEXCOORD_0":18},"indices":19,"material":2}]},{"primitives":[{"mode":4,"attributes":{"POSITION":20,"NORMAL":21,"TEXCOORD_0":22},"indices":23,"material":2}]},{"primitives":[{"mode":4,"attributes":{"POSITION":24,"NORMAL":25,"TEXCOORD_0":26},"indices":27,"material":2}]}]}