{"asset":{"version":"2.0","generator":"Blockbench 5.0.7 glTF exporter"},"scenes":[{"nodes":[0,1,2],"name":"blockbench_export"}],"scene":0,"nodes":[{"name":"plane","mesh":0},{"rotation":[0,-0.3826834323650898,0,0.9238795325112867],"translation":[0,0.009375,0],"name":"plane","mesh":1},{"rotation":[0,0.3826834323650898,0,0.9238795325112867],"translation":[0,0.003125,0],"name":"plane","mesh":2}],"bufferViews":[{"buffer":0,"byteOffset":0,"byteLength":192,"target":34962,"byteStride":12},{"buffer":0,"byteOffset":192,"byteLength":192,"target":34962,"byteStride":12},{"buffer":0,"byteOffset":384,"byteLength":128,"target":34962,"byteStride":8},{"buffer":0,"byteOffset":512,"byteLength":36,"target":34963},{"buffer":0,"byteOffset":548,"byteLength":192,"target":34962,"byteStride":12},{"buffer":0,"byteOffset":740,"byteLength":192,"target":34962,"byteStride":12},{"buffer":0,"byteOffset":932,"byteLength":128,"target":34962,"byteStride":8},{"buffer":0,"byteOffset":1060,"byteLength":36,"target":34963},{"buffer":0,"byteOffset":1096,"byteLength":192,"target":34962,"byteStride":12},{"buffer":0,"byteOffset":1288,"byteLength":192,"target":34962,"byteStride":12},{"buffer":0,"byteOffset":1480,"byteLength":128,"target":34962,"byteStride":8},{"buffer":0,"byteOffset":1608,"byteLength":36,"target":34963}],"buffers":[{"byteLength":1644,"uri":"data:application/octet-stream;base64,"}],"accessors":[{"bufferView":0,"componentType":5126,"count":16,"max":[0.15625,0.0625,0.125],"min":[-0.15625,0,-0.15625],"type":"VEC3"},{"bufferView":1,"componentType":5126,"count":16,"max":[0.5787472724914551,1,0.5547001957893372],"min":[-0.5547001957893372,0.7071067690849304,-0.7071067690849304],"type":"VEC3"},{"bufferView":2,"componentType":5126,"count":16,"max":[0.5419031381607056,0.4282156229019165],"min":[0,0],"type":"VEC2"},{"bufferView":3,"componentType":5123,"count":18,"max":[15],"min":[0],"type":"SCALAR"},{"bufferView":4,"componentType":5126,"count":16,"max":[0.125,0.09375,0.09375],"min":[-0.125,0,-0.08995874971151352],"type":"VEC3"},{"bufferView":5,"componentType":5126,"count":16,"max":[0.8281680345535278,1,0.9398031830787659],"min":[-0.8048500418663025,0.3417162001132965,-0.927178144454956],"type":"VEC3"},{"bufferView":6,"componentType":5126,"count":16,"max":[0.5419031381607056,0.4282156229019165],"min":[0,0],"type":"VEC2"},{"bufferView":7,"componentType":5123,"count":18,"max":[15],"min":[0],"type":"SCALAR"},{"bufferView":8,"componentType":5126,"count":16,"max":[0.13437500596046448,0.0625,0.13437500596046448],"min":[-0.13437500596046448,0,-0.13437500596046448],"type":"VEC3"},{"bufferView":9,"componentType":5126,"count":16,"max":[0.7053171396255493,1,0.6827302575111389],"min":[-0.6827302575111389,0.7088919281959534,-0.6827302575111389],"type":"VEC3"},{"bufferView":10,"componentType":5126,"count":16,"max":[0.5419031381607056,0.4282156229019165],"min":[0,0],"type":"VEC2"},{"bufferView":11,"componentType":5123,"count":18,"max":[15],"min":[0],"type":"SCALAR"}],"materials":[{"pbrMetallicRoughness":{"metallicFactor":0,"roughnessFactor":1,"baseColorTexture":{"index":0}},"alphaMode":"MASK","alphaCutoff":0.05,"doubleSided":true}],"textures":[{"sampler":0,"source":0,"name":"texture.png"}],"samplers":[{"magFilter":9728,"minFilter":9728,"wrapS":33071,"wrapT":33071}],"images":[{"mimeType":"image/png","uri":"data:image/png;base64,"}],"meshes":[{"primitives":[{"mode":4,"attributes":{"POSITION":0,"NORMAL":1,"TEXCOORD_0":2},"indices":3,"material":0}]},{"primitives":[{"mode":4,"attributes":{"POSITION":4,"NORMAL":5,"TEXCOORD_0":6},"indices":7,"material":0}]},{"primitives":[{"mode":4,"attributes":{"POSITION":8,"NORMAL":9,"TEXCOORD_0":10},"indices":11,"material":0}]}]}