{"asset":{"version":"2.0","generator":"Blockbench 5.1.0 glTF exporter"},"scenes":[{"nodes":[0],"name":"blockbench_export"}],"scene":0,"nodes":[{"translation":[0.0625,0.15625,-0.0625],"name":"plane","mesh":0}],"bufferViews":[{"buffer":0,"byteOffset":0,"byteLength":264,"target":34962,"byteStride":12},{"buffer":0,"byteOffset":264,"byteLength":264,"target":34962,"byteStride":12},{"buffer":0,"byteOffset":528,"byteLength":176,"target":34962,"byteStride":8},{"buffer":0,"byteOffset":704,"byteLength":60,"target":34963}],"buffers":[{"byteLength":764,"uri":"data:application/octet-stream;base64,"}],"accessors":[{"bufferView":0,"componentType":5126,"count":22,"max":[0.09375,0.14699949324131012,0.2794343829154968],"min":[-0.21875,0.02199949510395527,-0.09556560963392258],"type":"VEC3"},{"bufferView":1,"componentType":5126,"count":22,"max":[0.8267391324043274,0.9994766116142273,0.4204539954662323],"min":[-0.8195937871932983,-0.9045668840408325,-0.4199385643005371],"type":"VEC3"},{"bufferView":2,"componentType":5126,"count":22,"max":[0.59375,0.6521985530853271],"min":[0.0025015624705702066,0],"type":"VEC2"},{"bufferView":3,"componentType":5123,"count":30,"max":[21],"min":[0],"type":"SCALAR"}],"materials":[{"pbrMetallicRoughness":{"metallicFactor":0,"roughnessFactor":1,"baseColorTexture":{"index":0}},"alphaMode":"MASK","alphaCutoff":0.05,"doubleSided":true}],"textures":[{"sampler":0,"source":0,"name":"texture"}],"samplers":[{"magFilter":9728,"minFilter":9728,"wrapS":33071,"wrapT":33071}],"images":[{"mimeType":"image/png","uri":"data:image/png;base64,"}],"meshes":[{"primitives":[{"mode":4,"attributes":{"POSITION":0,"NORMAL":1,"TEXCOORD_0":2},"indices":3,"material":0}]}]}