{"asset":{"version":"2.0","generator":"Blockbench 5.1.0 glTF exporter"},"scenes":[{"nodes":[0],"name":"blockbench_export"}],"scene":0,"nodes":[{"translation":[0.0625,0,0],"name":"plane","mesh":0}],"bufferViews":[{"buffer":0,"byteOffset":0,"byteLength":696,"target":34962,"byteStride":12},{"buffer":0,"byteOffset":696,"byteLength":696,"target":34962,"byteStride":12},{"buffer":0,"byteOffset":1392,"byteLength":464,"target":34962,"byteStride":8},{"buffer":0,"byteOffset":1856,"byteLength":156,"target":34963}],"buffers":[{"byteLength":2012,"uri":"data:application/octet-stream;base64,"}],"accessors":[{"bufferView":0,"componentType":5126,"count":58,"max":[0.13750000298023224,0.25345098972320557,0.21855886280536652],"min":[-0.24375000596046448,0,-0.1159207671880722],"type":"VEC3"},{"bufferView":1,"componentType":5126,"count":58,"max":[0.9943348169326782,0.9925285577774048,0.27250123023986816],"min":[-1,-0.9938472509384155,-0.22918428480625153],"type":"VEC3"},{"bufferView":2,"componentType":5126,"count":58,"max":[0.65625,0.5702541470527649],"min":[0,0],"type":"VEC2"},{"bufferView":3,"componentType":5123,"count":78,"max":[57],"min":[0],"type":"SCALAR"}],"materials":[{"pbrMetallicRoughness":{"metallicFactor":0,"roughnessFactor":1,"baseColorTexture":{"index":0}},"alphaMode":"MASK","alphaCutoff":0.05,"doubleSided":true}],"textures":[{"sampler":0,"source":0,"name":"texture"}],"samplers":[{"magFilter":9728,"minFilter":9728,"wrapS":33071,"wrapT":33071}],"images":[{"mimeType":"image/png","uri":"data:image/png;base64,"}],"meshes":[{"primitives":[{"mode":4,"attributes":{"POSITION":0,"NORMAL":1,"TEXCOORD_0":2},"indices":3,"material":0}]}]}